<svg width="1512" height="354" viewBox="0 0 1512 354" fill="none" xmlns="http://www.w3.org/2000/svg">
<path d="M0.5 248.68C176.78 248.68 162.09 96.5337 315.811 96.5337C491.042 96.5337 414.969 247.631 598.07 247.631C781.171 247.631 742.347 96.5337 913.906 96.5337C1067.63 96.5337 1050.31 247.631 1195.64 247.631C1340.97 247.631 1321.55 95.4844 1512 95.4844" stroke="#E92129" stroke-width="2.09858" stroke-linecap="round" stroke-dasharray="23.08 23.08"/>
<g filter="url(#filter0_d_1_228)">
<rect x="266.494" y="46.168" width="103.591" height="103.591" rx="51.7956" fill="white" shape-rendering="crispEdges"/>
<path d="M298.176 105.642C298.176 105.642 292.39 101.087 292.39 95.0552C292.39 89.0231 297.191 84.2222 303.223 84.2222H304.946C310.979 84.2222 315.779 89.0231 315.779 95.0552C315.779 100.841 310.609 105.026 309.994 105.395C309.625 105.642 307.286 107.242 307.286 109.704L307.285 112.905H300.638V109.827C300.638 107.243 298.176 105.642 298.176 105.642ZM307.531 117.705V120.414C307.531 120.783 307.162 121.276 306.669 121.276H301.622C301.253 121.276 300.76 120.906 300.76 120.414V117.705H307.531Z" stroke="#E92129" stroke-width="2.90055"/>
<path d="M304.225 99.0103L306.349 100.224C306.552 100.224 306.653 100.427 306.855 100.427C307.058 100.427 307.361 100.427 307.564 100.224C307.867 100.021 308.07 99.5155 308.07 99.2121L307.564 96.683L309.384 94.9634C309.688 94.6599 309.688 94.2549 309.688 93.7496C309.485 93.4462 309.182 93.0412 308.878 93.0412L306.349 92.7377L305.136 90.613C304.933 90.3095 304.63 90.107 304.124 90.107C303.618 90.107 303.314 90.3095 303.112 90.613L301.898 92.7377L299.369 93.0412C299.066 93.0412 298.56 93.3446 298.56 93.7496C298.357 94.0531 298.56 94.559 298.863 94.9634L300.684 96.683L300.178 99.2121C300.178 99.5155 300.38 100.021 300.684 100.224C300.987 100.427 301.493 100.527 301.897 100.427L304.225 99.0103Z" fill="#E92129"/>
<path d="M326.216 78.3647L326.217 78.3388V78.3245C326.218 78.3193 326.222 78.3089 326.229 78.2934C326.247 78.2547 326.28 78.2038 326.331 78.1535C326.381 78.1033 326.432 78.0698 326.47 78.0518C326.486 78.0446 326.496 78.0412 326.501 78.0398H332.883L332.909 78.1655L333.219 78.4762C333.323 78.5796 333.374 78.6453 333.398 78.6821C333.374 78.7189 333.323 78.7845 333.219 78.8879C333.095 79.0119 333.025 79.0608 332.995 79.0788H330.798L330.148 81.8256L330.671 82.0875C335.248 86.84 335.298 94.6595 330.511 99.4463L326.942 103.016C326.942 103.016 326.942 103.016 326.942 103.016C322.85 107.107 322.437 113.72 326.089 118.356L326.836 119.304L327.904 118.742C329.629 117.834 331.779 118.275 333.096 119.592C334.869 121.365 334.869 124.262 333.096 126.035C331.33 127.802 328.445 127.808 326.671 126.053C325.357 124.629 325.004 122.472 325.926 120.719L326.375 119.867L325.763 119.122C321.678 114.154 322.016 106.872 326.531 102.358L330.1 98.7883C334.606 94.2831 334.606 86.8405 330.1 82.3346L329.752 82.683L330.1 82.3346L329.362 81.5961L327.03 79.2646L326.887 82.5587L326.764 85.3898L326.763 85.4212V85.4342C326.754 85.4494 326.738 85.4741 326.708 85.5104C326.694 85.5175 326.681 85.5244 326.668 85.5311C326.636 85.5478 326.607 85.5631 326.582 85.576C326.478 85.6299 326.408 85.6641 326.35 85.689C326.3 85.7103 326.271 85.7191 326.257 85.7229C326.224 85.7028 326.155 85.6528 326.038 85.5349L325.035 86.5376L326.038 85.5349C326.03 85.5278 326.018 85.5142 326.004 85.4713C325.988 85.4242 325.972 85.3455 325.97 85.2278L326.216 78.3647ZM333.14 78.0399C333.14 78.0399 333.139 78.0399 333.137 78.0398L333.14 78.0399ZM327.187 120.126L328.212 121.151L327.187 120.126C326.44 120.873 326.115 121.88 326.115 122.813C326.115 123.747 326.44 124.754 327.187 125.501C327.934 126.248 328.941 126.572 329.874 126.572C330.807 126.572 331.815 126.248 332.562 125.501C333.941 124.123 334.161 121.726 332.562 120.126L331.536 121.151L332.562 120.126C331.815 119.379 330.807 119.055 329.874 119.055C328.941 119.055 327.934 119.379 327.187 120.126Z" stroke="#E92129" stroke-width="2.90055"/>
<path d="M342.643 105.393V105.419C342.642 105.542 342.634 105.621 342.626 105.668L340.514 107.663L339.398 108.718L340.514 109.772L342.702 111.839C342.703 111.84 342.703 111.841 342.704 111.842C342.707 111.846 342.711 111.854 342.716 111.867C342.727 111.894 342.737 111.937 342.737 111.995C342.737 112.102 342.703 112.214 342.64 112.305C342.601 112.31 342.552 112.314 342.494 112.314C342.406 112.314 342.366 112.306 342.354 112.303C342.353 112.303 342.352 112.302 342.351 112.302C342.344 112.297 342.323 112.282 342.288 112.247L340.073 110.031L339.075 109.033L338.05 110.004L335.711 112.219L335.619 112.306C335.581 112.311 335.533 112.314 335.477 112.314C335.389 112.314 335.348 112.306 335.336 112.303C335.336 112.303 335.335 112.302 335.334 112.302C335.327 112.297 335.306 112.282 335.271 112.247L335.214 112.19C335.243 112.091 335.265 112.032 335.286 111.986C335.307 111.94 335.331 111.901 335.384 111.846L337.58 109.771L338.696 108.717L337.58 107.663L335.365 105.57L335.209 105.423L335.204 105.42C335.204 105.412 335.204 105.402 335.204 105.393C335.204 105.305 335.211 105.265 335.214 105.252C335.215 105.252 335.215 105.251 335.216 105.25C335.221 105.243 335.236 105.222 335.271 105.187L335.33 105.128C335.369 105.123 335.418 105.12 335.477 105.12C335.565 105.12 335.605 105.127 335.617 105.131C335.618 105.131 335.619 105.131 335.619 105.132C335.627 105.137 335.648 105.152 335.683 105.187L337.898 107.402L338.923 108.428L339.949 107.402L342.164 105.187L342.223 105.128C342.262 105.123 342.311 105.12 342.37 105.12C342.458 105.12 342.499 105.127 342.511 105.131C342.511 105.131 342.512 105.131 342.513 105.132C342.52 105.137 342.541 105.152 342.576 105.187L342.635 105.246C342.64 105.285 342.643 105.334 342.643 105.393Z" stroke="#E92129" stroke-width="2.90055"/>
<path d="M312.003 75.6871L311.945 75.6284C311.94 75.5934 311.937 75.5503 311.936 75.4996V75.4813C311.936 75.4717 311.936 75.4626 311.936 75.454L311.942 75.4514L312.097 75.3044L314.313 73.2127L315.429 72.1584L314.313 71.1039L312.097 69.0113L311.942 68.8642L311.936 68.8616C311.936 68.8529 311.936 68.8438 311.936 68.8343C311.936 68.8342 311.936 68.8341 311.936 68.8341C311.936 68.8338 311.936 68.8336 311.937 68.831C311.938 68.8264 311.942 68.8105 311.957 68.7792C311.982 68.7247 312.017 68.6646 312.079 68.5677C312.115 68.5637 312.159 68.5612 312.209 68.5612C312.297 68.5612 312.338 68.5689 312.35 68.5719C312.35 68.5723 312.351 68.5728 312.352 68.5734C312.359 68.5782 312.38 68.5933 312.415 68.6284L313.441 67.6029L312.415 68.6284L314.631 70.8438L315.656 71.8693L316.682 70.8438L318.897 68.6284L318.956 68.5697C318.995 68.5646 319.044 68.5612 319.103 68.5612C319.191 68.5612 319.231 68.5689 319.243 68.5719C319.244 68.5723 319.245 68.5728 319.245 68.5734C319.253 68.5782 319.273 68.5933 319.309 68.6284L319.355 68.6748L319.405 68.7169C319.406 68.7174 319.407 68.7187 319.41 68.7216C319.412 68.7248 319.416 68.7309 319.42 68.7407C319.429 68.7617 319.438 68.7942 319.438 68.8338C319.438 68.8734 319.429 68.9059 319.42 68.9269C319.416 68.9367 319.412 68.9428 319.41 68.946C319.407 68.949 319.406 68.9502 319.405 68.9508L319.371 68.9796L319.338 69.0104L317.123 71.103L316.007 72.1573L317.123 73.2116L319.338 75.3042L319.494 75.4513L319.499 75.4539C319.499 75.4626 319.499 75.4717 319.499 75.4812C319.499 75.5693 319.492 75.6096 319.489 75.6217C319.488 75.6223 319.488 75.623 319.487 75.6239C319.482 75.631 319.467 75.652 319.432 75.6871L319.374 75.7458C319.334 75.7509 319.285 75.7543 319.226 75.7543C319.138 75.7543 319.098 75.7466 319.086 75.7436C319.085 75.7432 319.085 75.7427 319.084 75.7421C319.077 75.7373 319.056 75.7222 319.021 75.6871L316.805 73.4717L315.807 72.4737L314.782 73.4442L312.443 75.6596L312.352 75.7464C312.313 75.7512 312.266 75.7543 312.209 75.7543C312.121 75.7543 312.081 75.7466 312.069 75.7436C312.068 75.7432 312.067 75.7427 312.067 75.7421C312.059 75.7373 312.038 75.7222 312.003 75.6871Z" stroke="#E92129" stroke-width="2.90055"/>
</g>
<g filter="url(#filter1_d_1_228)">
<rect x="862.49" y="46.168" width="103.591" height="103.591" rx="51.7956" fill="white" shape-rendering="crispEdges"/>
<path d="M935.463 119.784L934.92 120.328L928.284 113.677L927.124 112.513L926.114 113.81C924.711 115.611 922.915 117.068 920.864 118.07C918.813 119.073 916.56 119.594 914.277 119.594C911.994 119.594 909.741 119.073 907.69 118.07C905.639 117.068 903.843 115.611 902.44 113.81L901.43 112.513L900.269 113.677L893.634 120.328L893.089 119.783L900.348 112.508L901.062 111.792L900.638 110.875C899.775 109.009 899.31 106.985 899.272 104.93L899.241 103.245L897.58 103.527L890.174 104.781L890.048 103.995L898.058 102.676L899.272 102.476V101.245V93.2371V92.1286L898.203 91.8377L890.417 89.72L890.584 89.0217L897.965 91.0694L899.389 91.4647L899.757 90.0327C900.293 87.9466 901.271 86.0002 902.626 84.326C903.981 82.6518 905.681 81.2888 907.609 80.3299L908.414 79.9298V79.0313V74.9967H909.17V77.6235V79.4507L910.949 79.0359C913.138 78.5257 915.415 78.5257 917.604 79.0359L919.384 79.4507V77.6235V74.9967H920.14V79.0313V79.9331L920.949 80.332C922.871 81.2802 924.568 82.6294 925.926 84.2887C927.283 85.948 928.269 87.879 928.818 89.9515L929.189 91.3568L930.594 90.9817L938.02 88.9984L938.212 89.7249L930.355 91.8366L929.281 92.1252V93.2371V101.245V102.476L930.496 102.676L938.51 103.994L938.375 104.783L930.974 103.527L929.317 103.245L929.282 104.926C929.238 106.982 928.768 109.007 927.899 110.871L927.471 111.791L928.189 112.509L935.463 119.784ZM912.241 118.715L913.899 118.954V117.279V93.6576V92.2074H912.449H901.479H900.029V93.6576L900.029 104.627L900.029 104.629C900.033 108.052 901.269 111.36 903.512 113.946C905.754 116.533 908.853 118.226 912.241 118.715ZM900.619 89.5879L900.065 91.4513H902.009H926.545H928.489L927.935 89.5879C927.06 86.6446 925.258 84.0625 922.797 82.2263C920.336 80.3902 917.347 79.3983 914.277 79.3983C911.206 79.3983 908.218 80.3902 905.757 82.2263C903.296 84.0625 901.493 86.6446 900.619 89.5879ZM928.525 104.629V104.627V93.6576V92.2074H927.075H916.105H914.655V93.6576V117.279V118.954L916.312 118.715C919.701 118.226 922.799 116.533 925.042 113.946C927.285 111.36 928.521 108.052 928.525 104.629Z" stroke="#E92129" stroke-width="2.90055"/>
</g>
<g filter="url(#filter2_d_1_228)">
<rect x="546.654" y="188.871" width="103.591" height="103.591" rx="51.7956" fill="white" shape-rendering="crispEdges"/>
<path d="M615.023 215.14C615.023 214.561 615.493 214.091 616.072 214.091H624.333C624.912 214.091 625.382 214.561 625.382 215.14V223.401C625.382 223.981 624.912 224.45 624.333 224.45H616.072C615.493 224.45 615.023 223.981 615.023 223.401V215.14Z" stroke="#E92129" stroke-width="2.90055"/>
<path d="M615.023 231.717C615.023 231.137 615.493 230.667 616.072 230.667H624.333C624.912 230.667 625.382 231.137 625.382 231.717V239.977C625.382 240.557 624.912 241.026 624.333 241.026H616.072C615.493 241.026 615.023 240.557 615.023 239.977V231.717Z" stroke="#E92129" stroke-width="2.90055"/>
<path d="M600.523 215.14C600.523 214.561 600.993 214.091 601.572 214.091H609.833C610.412 214.091 610.882 214.561 610.882 215.14V223.401C610.882 223.981 610.412 224.45 609.833 224.45H601.572C600.993 224.45 600.523 223.981 600.523 223.401V215.14Z" stroke="#E92129" stroke-width="2.90055"/>
<path d="M600.523 231.717C600.523 231.137 600.993 230.667 601.572 230.667H609.833C610.412 230.667 610.882 231.137 610.882 231.717V239.977C610.882 240.557 610.412 241.026 609.833 241.026H601.572C600.993 241.026 600.523 240.557 600.523 239.977V231.717Z" stroke="#E92129" stroke-width="2.90055"/>
<path d="M594.307 219.916C595.108 219.916 595.757 219.267 595.757 218.466C595.757 217.665 595.108 217.016 594.307 217.016V219.916ZM576.252 218.466V217.016V218.466ZM572.552 222.166H571.102H572.552ZM572.552 251.764H571.102H572.552ZM591.051 255.463H592.501C592.501 254.662 591.852 254.013 591.051 254.013V255.463ZM591.051 265.443V266.894H592.501V265.443H591.051ZM583.651 263.993C582.85 263.993 582.201 264.643 582.201 265.443C582.201 266.244 582.85 266.894 583.651 266.894V263.993ZM613.249 266.894C614.05 266.894 614.699 266.244 614.699 265.443C614.699 264.643 614.05 263.993 613.249 263.993V266.894ZM605.85 265.443H604.399V266.894H605.85V265.443ZM605.85 255.463V254.013C605.049 254.013 604.399 254.662 604.399 255.463H605.85ZM625.799 246.88C625.799 246.079 625.149 245.43 624.348 245.43C623.547 245.43 622.898 246.079 622.898 246.88H625.799ZM600.897 259.917C601.698 259.917 602.347 259.267 602.347 258.466C602.347 257.665 601.698 257.016 600.897 257.016V259.917ZM595.868 257.016C595.067 257.016 594.418 257.665 594.418 258.466C594.418 259.267 595.067 259.917 595.868 259.917V257.016ZM594.307 217.016H576.252V219.916H594.307V217.016ZM576.252 217.016C574.886 217.016 573.576 217.558 572.61 218.524L574.661 220.575C575.083 220.153 575.655 219.916 576.252 219.916V217.016ZM572.61 218.524C571.645 219.49 571.102 220.8 571.102 222.166H574.003C574.003 221.569 574.24 220.997 574.661 220.575L572.61 218.524ZM571.102 222.166V251.764H574.003V222.166H571.102ZM571.102 251.764C571.102 253.13 571.645 254.439 572.61 255.405L574.661 253.354C574.24 252.932 574.003 252.36 574.003 251.764H571.102ZM572.61 255.405C573.576 256.371 574.886 256.914 576.252 256.914V254.013C575.655 254.013 575.083 253.776 574.661 253.354L572.61 255.405ZM576.252 256.914H591.051V254.013H576.252V256.914ZM589.601 255.463V265.443H592.501V255.463H589.601ZM591.051 263.993H583.651V266.894H591.051V263.993ZM613.249 263.993H605.85V266.894H613.249V263.993ZM607.3 265.443V255.463H604.399V265.443H607.3ZM605.85 256.914H620.649V254.013H605.85V256.914ZM620.649 256.914C622.014 256.914 623.324 256.371 624.29 255.405L622.239 253.354C621.817 253.776 621.245 254.013 620.649 254.013V256.914ZM624.29 255.405C625.256 254.439 625.799 253.13 625.799 251.764H622.898C622.898 252.36 622.661 252.932 622.239 253.354L624.29 255.405ZM625.799 251.764V246.88H622.898V251.764H625.799ZM600.897 257.016H595.868V259.917H600.897V257.016ZM613.249 263.993H583.651V266.894H613.249V263.993Z" fill="#E92129"/>
</g>
<g filter="url(#filter3_d_1_228)">
<rect x="1143.88" y="188.871" width="103.591" height="103.591" rx="51.7956" fill="white" shape-rendering="crispEdges"/>
<path d="M1178.41 236.081V238.363C1178.61 239.781 1185.06 244.118 1195.68 244.118C1206.3 244.118 1212.75 239.781 1212.95 238.346V236.081M1178.41 249.873V252.751C1178.61 254.169 1185.06 258.506 1195.68 258.506C1206.3 258.506 1212.75 254.169 1212.95 252.733V249.873M1218.7 255.053V226.277C1218.7 220.039 1208.16 214.767 1195.68 214.767C1183.2 214.767 1172.66 220.039 1172.66 226.277V255.053C1172.66 261.291 1183.2 266.563 1195.68 266.563C1208.16 266.563 1218.7 261.291 1218.7 255.053ZM1195.68 220.522C1206.3 220.522 1212.75 224.859 1212.95 226.26C1212.75 227.696 1206.3 232.032 1195.68 232.032C1185.06 232.032 1178.61 227.696 1178.41 226.294C1178.61 224.859 1185.06 220.522 1195.68 220.522Z" stroke="#E92129" stroke-width="2.90055" stroke-linecap="round"/>
</g>
<path d="M270.212 22H268.47V8.00249H274.095C276.907 8.00249 278.481 9.93318 278.481 12.2206C278.481 14.5081 276.865 16.4388 274.095 16.4388H270.212V22ZM273.885 14.8858C275.543 14.8858 276.676 13.7946 276.676 12.2206C276.676 10.6467 275.543 9.55544 273.885 9.55544H270.212V14.8858H273.885ZM289.454 22H281.207V8.00249H282.949V20.4471H289.454V22ZM304.307 22H302.314L301.075 18.8941H294.108L292.87 22H290.876L296.501 8.00249H298.662L304.307 22ZM300.551 17.3412L297.592 9.80727L294.612 17.3412H300.551ZM318.141 22H316.462L308.299 10.8356V22H306.557V8.00249H308.341L316.399 18.9361V8.00249H318.141V22ZM333.419 22H331.74L323.577 10.8356V22H321.835V8.00249H323.619L331.677 18.9361V8.00249H333.419V22ZM338.854 22H337.113V8.00249H338.854V22ZM354.138 22H352.459L344.295 10.8356V22H342.553V8.00249H344.337L352.396 18.9361V8.00249H354.138V22ZM364.463 22.2728C360.475 22.2728 357.265 19.3558 357.265 15.0117C357.265 10.6677 360.475 7.77165 364.463 7.77165C366.939 7.77165 368.66 8.86291 369.898 10.3949L368.513 11.2553C367.632 10.1221 366.142 9.32459 364.463 9.32459C361.399 9.32459 359.069 11.675 359.069 15.0117C359.069 18.3275 361.399 20.7199 364.463 20.7199C366.142 20.7199 367.527 19.9014 368.219 19.2089V16.3548H363.413V14.8019H369.961V19.8595C368.66 21.3075 366.75 22.2728 364.463 22.2728Z" fill="#292929"/>
<path d="M529.099 344.131H524.315V330.133H529.099C533.443 330.133 536.276 333.176 536.276 337.143C536.276 341.13 533.443 344.131 529.099 344.131ZM529.099 342.578C532.499 342.578 534.472 340.144 534.472 337.143C534.472 334.121 532.562 331.686 529.099 331.686H526.056V342.578H529.099ZM548.599 344.131H539.428V330.133H548.599V331.686H541.17V336.198H548.452V337.751H541.17V342.578H548.599V344.131ZM558.134 344.131H555.972L550.348 330.133H552.342L557.063 342.221L561.785 330.133H563.779L558.134 344.131ZM575.199 344.131H566.029V330.133H575.199V331.686H567.77V336.198H575.053V337.751H567.77V342.578H575.199V344.131ZM586.644 344.131H578.396V330.133H580.138V342.578H586.644V344.131ZM595.176 344.383C591.021 344.383 588.23 341.277 588.23 337.143C588.23 333.008 591.021 329.903 595.176 329.903C599.31 329.903 602.123 333.008 602.123 337.143C602.123 341.277 599.31 344.383 595.176 344.383ZM595.176 342.83C598.303 342.83 600.318 340.395 600.318 337.143C600.318 333.869 598.303 331.455 595.176 331.455C592.028 331.455 590.035 333.869 590.035 337.143C590.035 340.395 592.028 342.83 595.176 342.83ZM607.005 344.131H605.263V330.133H610.887C613.699 330.133 615.273 332.064 615.273 334.351C615.273 336.639 613.657 338.57 610.887 338.57H607.005V344.131ZM610.677 337.017C612.335 337.017 613.468 335.925 613.468 334.351C613.468 332.778 612.335 331.686 610.677 331.686H607.005V337.017H610.677ZM631.703 344.131H629.961V332.61L625.198 344.131H624.484L619.741 332.61V344.131H618V330.133H620.497L624.841 340.668L629.206 330.133H631.703V344.131ZM644.559 344.131H635.388V330.133H644.559V331.686H637.13V336.198H644.412V337.751H637.13V342.578H644.559V344.131ZM659.34 344.131H657.661L649.498 332.966V344.131H647.756V330.133H649.54L657.598 341.067V330.133H659.34V344.131ZM668.238 344.131H666.496V331.686H662.068V330.133H672.687V331.686H668.238V344.131Z" fill="#292929"/>
<path d="M1133.43 344.131H1128.65V330.133H1133.43C1137.77 330.133 1140.61 333.176 1140.61 337.143C1140.61 341.13 1137.77 344.131 1133.43 344.131ZM1133.43 342.578C1136.83 342.578 1138.8 340.144 1138.8 337.143C1138.8 334.121 1136.89 331.686 1133.43 331.686H1130.39V342.578H1133.43ZM1152.93 344.131H1143.76V330.133H1152.93V331.686H1145.5V336.198H1152.78V337.751H1145.5V342.578H1152.93V344.131ZM1157.87 344.131H1156.13V330.133H1161.75C1164.56 330.133 1166.14 332.064 1166.14 334.351C1166.14 336.639 1164.52 338.57 1161.75 338.57H1157.87V344.131ZM1161.54 337.017C1163.2 337.017 1164.33 335.925 1164.33 334.351C1164.33 332.778 1163.2 331.686 1161.54 331.686H1157.87V337.017H1161.54ZM1177.11 344.131H1168.86V330.133H1170.61V342.578H1177.11V344.131ZM1185.64 344.383C1181.49 344.383 1178.7 341.277 1178.7 337.143C1178.7 333.008 1181.49 329.903 1185.64 329.903C1189.78 329.903 1192.59 333.008 1192.59 337.143C1192.59 341.277 1189.78 344.383 1185.64 344.383ZM1185.64 342.83C1188.77 342.83 1190.78 340.395 1190.78 337.143C1190.78 333.869 1188.77 331.455 1185.64 331.455C1182.5 331.455 1180.5 333.869 1180.5 337.143C1180.5 340.395 1182.5 342.83 1185.64 342.83ZM1200.7 344.131H1198.96V338.213L1193.44 330.133H1195.48L1199.82 336.639L1204.17 330.133H1206.2L1200.7 338.213V344.131ZM1222.15 344.131H1220.41V332.61L1215.64 344.131H1214.93L1210.19 332.61V344.131H1208.45V330.133H1210.94L1215.29 340.668L1219.65 330.133H1222.15V344.131ZM1235.01 344.131H1225.83V330.133H1235.01V331.686H1227.58V336.198H1234.86V337.751H1227.58V342.578H1235.01V344.131ZM1249.79 344.131H1248.11L1239.94 332.966V344.131H1238.2V330.133H1239.99L1248.04 341.067V330.133H1249.79V344.131ZM1258.68 344.131H1256.94V331.686H1252.51V330.133H1263.13V331.686H1258.68V344.131Z" fill="#292929"/>
<path d="M878.018 21.9999H876.276V9.55538H871.848V8.00243H882.467V9.55538H878.018V21.9999ZM894.373 21.9999H885.202V8.00243H894.373V9.55538H886.944V14.0673H894.226V15.6203H886.944V20.447H894.373V21.9999ZM902.102 22.2518C899.668 22.2518 897.884 21.3284 896.73 20.0273L897.758 18.7052C898.682 19.7335 900.193 20.6988 902.165 20.6988C904.663 20.6988 905.46 19.3557 905.46 18.2855C905.46 14.6759 897.171 16.6696 897.171 11.6749C897.171 9.3665 899.227 7.79257 901.976 7.79257C904.117 7.79257 905.775 8.50609 906.95 9.74425L905.901 11.0244C904.851 9.87016 903.382 9.34552 901.85 9.34552C900.172 9.34552 898.975 10.2479 898.975 11.57C898.975 14.7179 907.265 12.9131 907.265 18.1386C907.265 20.1742 905.88 22.2518 902.102 22.2518ZM915.367 21.9999H913.625V9.55538H909.197V8.00243H919.816V9.55538H915.367V21.9999ZM924.292 21.9999H922.551V8.00243H924.292V21.9999ZM939.576 21.9999H937.897L929.733 10.8355V21.9999H927.991V8.00243H929.775L937.834 18.936V8.00243H939.576V21.9999ZM949.901 22.2728C945.913 22.2728 942.703 19.3557 942.703 15.0117C942.703 10.6676 945.913 7.77159 949.901 7.77159C952.377 7.77159 954.098 8.86285 955.336 10.3948L953.951 11.2552C953.07 10.122 951.58 9.32453 949.901 9.32453C946.837 9.32453 944.507 11.6749 944.507 15.0117C944.507 18.3274 946.837 20.7198 949.901 20.7198C951.58 20.7198 952.965 19.9014 953.657 19.2088V16.3548H948.851V14.8018H955.399V19.8594C954.098 21.3074 952.188 22.2728 949.901 22.2728Z" fill="#292929"/>
<defs>
<filter id="filter0_d_1_228" x="237.114" y="29.3794" width="162.351" height="162.351" filterUnits="userSpaceOnUse" color-interpolation-filters="sRGB">
<feFlood flood-opacity="0" result="BackgroundImageFix"/>
<feColorMatrix in="SourceAlpha" type="matrix" values="0 0 0 0 0 0 0 0 0 0 0 0 0 0 0 0 0 0 127 0" result="hardAlpha"/>
<feOffset dy="12.5915"/>
<feGaussianBlur stdDeviation="14.69"/>
<feComposite in2="hardAlpha" operator="out"/>
<feColorMatrix type="matrix" values="0 0 0 0 0 0 0 0 0 0 0 0 0 0 0 0 0 0 0.05 0"/>
<feBlend mode="normal" in2="BackgroundImageFix" result="effect1_dropShadow_1_228"/>
<feBlend mode="normal" in="SourceGraphic" in2="effect1_dropShadow_1_228" result="shape"/>
</filter>
<filter id="filter1_d_1_228" x="833.11" y="29.3794" width="162.351" height="162.351" filterUnits="userSpaceOnUse" color-interpolation-filters="sRGB">
<feFlood flood-opacity="0" result="BackgroundImageFix"/>
<feColorMatrix in="SourceAlpha" type="matrix" values="0 0 0 0 0 0 0 0 0 0 0 0 0 0 0 0 0 0 127 0" result="hardAlpha"/>
<feOffset dy="12.5915"/>
<feGaussianBlur stdDeviation="14.69"/>
<feComposite in2="hardAlpha" operator="out"/>
<feColorMatrix type="matrix" values="0 0 0 0 0 0 0 0 0 0 0 0 0 0 0 0 0 0 0.05 0"/>
<feBlend mode="normal" in2="BackgroundImageFix" result="effect1_dropShadow_1_228"/>
<feBlend mode="normal" in="SourceGraphic" in2="effect1_dropShadow_1_228" result="shape"/>
</filter>
<filter id="filter2_d_1_228" x="517.274" y="172.082" width="162.351" height="162.351" filterUnits="userSpaceOnUse" color-interpolation-filters="sRGB">
<feFlood flood-opacity="0" result="BackgroundImageFix"/>
<feColorMatrix in="SourceAlpha" type="matrix" values="0 0 0 0 0 0 0 0 0 0 0 0 0 0 0 0 0 0 127 0" result="hardAlpha"/>
<feOffset dy="12.5915"/>
<feGaussianBlur stdDeviation="14.69"/>
<feComposite in2="hardAlpha" operator="out"/>
<feColorMatrix type="matrix" values="0 0 0 0 0 0 0 0 0 0 0 0 0 0 0 0 0 0 0.05 0"/>
<feBlend mode="normal" in2="BackgroundImageFix" result="effect1_dropShadow_1_228"/>
<feBlend mode="normal" in="SourceGraphic" in2="effect1_dropShadow_1_228" result="shape"/>
</filter>
<filter id="filter3_d_1_228" x="1114.5" y="172.082" width="162.351" height="162.351" filterUnits="userSpaceOnUse" color-interpolation-filters="sRGB">
<feFlood flood-opacity="0" result="BackgroundImageFix"/>
<feColorMatrix in="SourceAlpha" type="matrix" values="0 0 0 0 0 0 0 0 0 0 0 0 0 0 0 0 0 0 127 0" result="hardAlpha"/>
<feOffset dy="12.5915"/>
<feGaussianBlur stdDeviation="14.69"/>
<feComposite in2="hardAlpha" operator="out"/>
<feColorMatrix type="matrix" values="0 0 0 0 0 0 0 0 0 0 0 0 0 0 0 0 0 0 0.05 0"/>
<feBlend mode="normal" in2="BackgroundImageFix" result="effect1_dropShadow_1_228"/>
<feBlend mode="normal" in="SourceGraphic" in2="effect1_dropShadow_1_228" result="shape"/>
</filter>
</defs>
</svg>
