<svg width="428" height="195" viewBox="0 0 428 195" fill="none" xmlns="http://www.w3.org/2000/svg">
<path d="M-377 136.821C-280.317 136.821 -288.374 53.3738 -204.064 53.3738C-107.956 53.3738 -149.68 136.245 -49.2558 136.245C51.168 136.245 29.8747 53.3738 123.968 53.3738C208.278 53.3738 198.782 136.245 278.488 136.245C358.194 136.245 347.548 52.7983 452 52.7983" stroke="#E92129" stroke-width="1.15099" stroke-linecap="round" stroke-dasharray="12.66 12.66"/>
<g filter="url(#filter0_d_284_1530)">
<rect x="95.7686" y="25.7505" width="56.8158" height="56.8158" rx="28.4079" fill="white" shape-rendering="crispEdges"/>
<path d="M135.792 66.1262L135.493 66.4245L131.854 62.7767L131.218 62.1386L130.664 62.8497C129.894 63.8375 128.909 64.6367 127.784 65.1864C126.659 65.7361 125.424 66.0218 124.172 66.0218C122.919 66.0218 121.684 65.7361 120.559 65.1864C119.434 64.6367 118.449 63.8375 117.68 62.8497L117.126 62.1386L116.489 62.7767L112.85 66.4245L112.551 66.1255L116.532 62.1355L116.924 61.7431L116.691 61.2399C116.218 60.2167 115.963 59.1062 115.942 57.9791L115.925 57.0553L115.014 57.2096L110.952 57.8978L110.883 57.4668L115.276 56.7431L115.942 56.6334V55.9583V51.5662V50.9583L115.356 50.7987L111.086 49.6372L111.177 49.2542L115.225 50.3773L116.006 50.5941L116.208 49.8087C116.502 48.6646 117.039 47.5971 117.782 46.6788C118.525 45.7605 119.457 45.013 120.515 44.4871L120.956 44.2677V43.7749V41.562H121.371V43.0027V44.0049L122.347 43.7774C123.547 43.4975 124.796 43.4975 125.997 43.7774L126.973 44.0049V43.0027V41.562H127.387V43.7749V44.2695L127.831 44.4882C128.885 45.0083 129.816 45.7483 130.561 46.6584C131.305 47.5684 131.846 48.6275 132.147 49.7642L132.351 50.5349L133.121 50.3292L137.194 49.2414L137.299 49.6399L132.99 50.7981L132.401 50.9564V51.5662V55.9583V56.6336L133.067 56.7432L137.462 57.4657L137.389 57.8988L133.329 57.2097L132.421 57.0553L132.401 57.9771C132.377 59.1049 132.119 60.2153 131.643 61.2379L131.408 61.7425L131.802 62.1361L135.792 66.1262ZM123.055 65.5397L123.964 65.6709V64.7524V51.7969V51.0014H123.169H117.152H116.357V51.7969L116.357 57.8134L116.357 57.8143C116.359 59.6919 117.037 61.5059 118.267 62.9245C119.497 64.3431 121.197 65.2714 123.055 65.5397ZM116.681 49.5648L116.377 50.5868H117.443H130.9H131.966L131.663 49.5648C131.183 47.9504 130.194 46.5343 128.845 45.5272C127.495 44.5202 125.856 43.9761 124.172 43.9761C122.487 43.9761 120.848 44.5202 119.499 45.5272C118.149 46.5343 117.16 47.9504 116.681 49.5648ZM131.986 57.8143V57.8134V51.7969V51.0014H131.191H125.174H124.379V51.7969V64.7524V65.6709L125.288 65.5397C127.146 65.2714 128.846 64.3431 130.076 62.9245C131.306 61.5059 131.984 59.6919 131.986 57.8143Z" stroke="#E92129" stroke-width="1.59084"/>
</g>
<g filter="url(#filter1_d_284_1530)">
<rect x="250.103" y="104.018" width="56.8158" height="56.8158" rx="28.4079" fill="white" shape-rendering="crispEdges"/>
<path d="M269.042 129.911V131.162C269.151 131.94 272.686 134.319 278.511 134.319C284.336 134.319 287.871 131.94 287.98 131.153V129.911M269.042 137.475V139.053C269.151 139.831 272.686 142.21 278.511 142.21C284.336 142.21 287.871 139.831 287.98 139.044V137.475M291.137 140.316V124.534C291.137 121.112 285.356 118.221 278.511 118.221C271.666 118.221 265.885 121.112 265.885 124.534V140.316C265.885 143.737 271.666 146.629 278.511 146.629C285.356 146.629 291.137 143.737 291.137 140.316ZM278.511 121.377C284.336 121.377 287.871 123.756 287.98 124.524C287.871 125.312 284.336 127.69 278.511 127.69C272.686 127.69 269.151 125.312 269.042 124.543C269.151 123.756 272.686 121.377 278.511 121.377Z" stroke="#E92129" stroke-width="1.59084" stroke-linecap="round"/>
</g>
<path d="M239.392 191.105H236.312V182.094H239.392C242.189 182.094 244.013 184.053 244.013 186.607C244.013 189.174 242.189 191.105 239.392 191.105ZM239.392 190.106C241.581 190.106 242.851 188.539 242.851 186.607C242.851 184.661 241.622 183.094 239.392 183.094H237.433V190.106H239.392ZM251.946 191.105H246.042V182.094H251.946V183.094H247.163V185.999H251.851V186.998H247.163V190.106H251.946V191.105ZM255.125 191.105H254.004V182.094H257.624C259.435 182.094 260.448 183.337 260.448 184.81C260.448 186.282 259.408 187.525 257.624 187.525H255.125V191.105ZM257.489 186.526C258.557 186.526 259.286 185.823 259.286 184.81C259.286 183.797 258.557 183.094 257.489 183.094H255.125V186.526H257.489ZM267.513 191.105H262.203V182.094H263.324V190.106H267.513V191.105ZM273.005 191.268C270.33 191.268 268.534 189.268 268.534 186.607C268.534 183.945 270.33 181.946 273.005 181.946C275.667 181.946 277.477 183.945 277.477 186.607C277.477 189.268 275.667 191.268 273.005 191.268ZM273.005 190.268C275.018 190.268 276.315 188.701 276.315 186.607C276.315 184.499 275.018 182.945 273.005 182.945C270.979 182.945 269.696 184.499 269.696 186.607C269.696 188.701 270.979 190.268 273.005 190.268ZM282.7 191.105H281.579V187.296L278.026 182.094H279.336L282.133 186.282L284.929 182.094H286.24L282.7 187.296V191.105ZM296.507 191.105H295.386V183.689L292.319 191.105H291.86L288.806 183.689V191.105H287.685V182.094H289.293L292.089 188.876L294.899 182.094H296.507V191.105ZM304.783 191.105H298.879V182.094H304.783V183.094H300.001V185.999H304.689V186.998H300.001V190.106H304.783V191.105ZM314.299 191.105H313.218L307.962 183.918V191.105H306.841V182.094H307.99L313.177 189.133V182.094H314.299V191.105ZM320.027 191.105H318.906V183.094H316.055V182.094H322.891V183.094H320.027V191.105Z" fill="#292929"/>
<path d="M100.783 14.4292H99.662V6.41783H96.8114V5.4181H103.647V6.41783H100.783V14.4292ZM111.312 14.4292H105.408V5.4181H111.312V6.41783H106.529V9.32246H111.217V10.3222H106.529V13.4295H111.312V14.4292ZM116.288 14.5913C114.721 14.5913 113.572 13.9969 112.829 13.1593L113.491 12.3081C114.086 12.9701 115.059 13.5916 116.328 13.5916C117.936 13.5916 118.45 12.727 118.45 12.0379C118.45 9.71425 113.113 10.9977 113.113 7.78233C113.113 6.29624 114.437 5.283 116.207 5.283C117.585 5.283 118.652 5.74234 119.409 6.53942L118.733 7.36352C118.058 6.62048 117.112 6.28273 116.126 6.28273C115.045 6.28273 114.275 6.86366 114.275 7.71478C114.275 9.74127 119.611 8.57941 119.611 11.9434C119.611 13.2538 118.72 14.5913 116.288 14.5913ZM124.827 14.4292H123.706V6.41783H120.855V5.4181H127.691V6.41783H124.827V14.4292ZM130.573 14.4292H129.452V5.4181H130.573V14.4292ZM140.412 14.4292H139.331L134.076 7.24194V14.4292H132.954V5.4181H134.103L139.291 12.4568V5.4181H140.412V14.4292ZM147.059 14.6048C144.492 14.6048 142.425 12.727 142.425 9.9304C142.425 7.13386 144.492 5.26949 147.059 5.26949C148.653 5.26949 149.761 5.97201 150.558 6.95823L149.666 7.51213C149.099 6.7826 148.14 6.26922 147.059 6.26922C145.086 6.26922 143.587 7.78233 143.587 9.9304C143.587 12.065 145.086 13.6051 147.059 13.6051C148.14 13.6051 149.031 13.0782 149.477 12.6324V10.795H146.383V9.79531H150.598V13.0512C149.761 13.9834 148.531 14.6048 147.059 14.6048Z" fill="#292929"/>
<defs>
<filter id="filter0_d_284_1530" x="79.6547" y="16.5426" width="89.0436" height="89.0436" filterUnits="userSpaceOnUse" color-interpolation-filters="sRGB">
<feFlood flood-opacity="0" result="BackgroundImageFix"/>
<feColorMatrix in="SourceAlpha" type="matrix" values="0 0 0 0 0 0 0 0 0 0 0 0 0 0 0 0 0 0 127 0" result="hardAlpha"/>
<feOffset dy="6.90594"/>
<feGaussianBlur stdDeviation="8.05692"/>
<feComposite in2="hardAlpha" operator="out"/>
<feColorMatrix type="matrix" values="0 0 0 0 0 0 0 0 0 0 0 0 0 0 0 0 0 0 0.05 0"/>
<feBlend mode="normal" in2="BackgroundImageFix" result="effect1_dropShadow_284_1530"/>
<feBlend mode="normal" in="SourceGraphic" in2="effect1_dropShadow_284_1530" result="shape"/>
</filter>
<filter id="filter1_d_284_1530" x="233.989" y="94.8097" width="89.0436" height="89.0436" filterUnits="userSpaceOnUse" color-interpolation-filters="sRGB">
<feFlood flood-opacity="0" result="BackgroundImageFix"/>
<feColorMatrix in="SourceAlpha" type="matrix" values="0 0 0 0 0 0 0 0 0 0 0 0 0 0 0 0 0 0 127 0" result="hardAlpha"/>
<feOffset dy="6.90594"/>
<feGaussianBlur stdDeviation="8.05692"/>
<feComposite in2="hardAlpha" operator="out"/>
<feColorMatrix type="matrix" values="0 0 0 0 0 0 0 0 0 0 0 0 0 0 0 0 0 0 0.05 0"/>
<feBlend mode="normal" in2="BackgroundImageFix" result="effect1_dropShadow_284_1530"/>
<feBlend mode="normal" in="SourceGraphic" in2="effect1_dropShadow_284_1530" result="shape"/>
</filter>
</defs>
</svg>
