<svg width="428" height="195" viewBox="0 0 428 195" fill="none" xmlns="http://www.w3.org/2000/svg">
<path d="M-49 136.821C47.6831 136.821 39.6262 53.3738 123.936 53.3738C220.044 53.3738 178.32 136.245 278.744 136.245C379.168 136.245 357.875 53.3738 451.968 53.3738C536.278 53.3738 526.782 136.245 606.488 136.245C686.194 136.245 675.548 52.7983 780 52.7983" stroke="#E92129" stroke-width="1.15099" stroke-linecap="round" stroke-dasharray="12.66 12.66"/>
<g filter="url(#filter0_d_284_1465)">
<rect x="96.8877" y="25.7505" width="56.8158" height="56.8158" rx="28.4079" fill="white" shape-rendering="crispEdges"/>
<path d="M114.264 58.3694C114.264 58.3694 111.091 55.8714 111.091 52.5631C111.091 49.2547 113.724 46.6216 117.032 46.6216H117.977C121.286 46.6216 123.919 49.2547 123.919 52.5631C123.919 55.7363 121.083 58.0317 120.746 58.2343C120.543 58.3694 119.26 59.2468 119.26 60.5975L119.26 62.3528H115.614V60.6649C115.614 59.2473 114.264 58.3694 114.264 58.3694ZM119.395 64.9858V66.4711C119.395 66.6737 119.193 66.944 118.922 66.944H116.154C115.952 66.944 115.681 66.7415 115.681 66.4711V64.9858H119.395Z" stroke="#E92129" stroke-width="1.59084"/>
<path d="M117.581 54.7322L118.747 55.3979C118.858 55.3979 118.913 55.509 119.024 55.509C119.135 55.509 119.302 55.509 119.413 55.3979C119.579 55.2868 119.69 55.0093 119.69 54.8429L119.413 53.4558L120.411 52.5127C120.578 52.3462 120.578 52.1241 120.578 51.847C120.467 51.6806 120.3 51.4584 120.134 51.4584L118.747 51.292L118.081 50.1266C117.97 49.9602 117.804 49.8491 117.526 49.8491C117.249 49.8491 117.082 49.9602 116.971 50.1266L116.305 51.292L114.918 51.4584C114.752 51.4584 114.474 51.6248 114.474 51.847C114.363 52.0134 114.474 52.2909 114.641 52.5127L115.639 53.4558L115.362 54.8429C115.362 55.0093 115.473 55.2868 115.639 55.3979C115.806 55.509 116.083 55.5643 116.305 55.509L117.581 54.7322Z" fill="#E92129"/>
<path d="M129.643 43.4092L129.643 43.395V43.3872C129.644 43.3843 129.646 43.3786 129.65 43.3701C129.66 43.3489 129.678 43.321 129.706 43.2934C129.733 43.2659 129.761 43.2475 129.782 43.2376C129.791 43.2336 129.797 43.2318 129.8 43.231H133.3L133.314 43.3L133.484 43.4704C133.541 43.5271 133.569 43.5631 133.582 43.5833C133.569 43.6035 133.541 43.6395 133.484 43.6962C133.416 43.7642 133.378 43.791 133.361 43.8009H132.156L131.8 45.3074L132.086 45.451C134.597 48.0576 134.624 52.3463 131.999 54.9717L130.041 56.9294C130.041 56.9294 130.041 56.9294 130.041 56.9294C127.797 59.1735 127.57 62.8001 129.574 65.3431L129.983 65.8631L130.569 65.5547C131.515 65.0568 132.694 65.2984 133.417 66.0209C134.389 66.9932 134.389 68.5824 133.417 69.5547C132.448 70.5237 130.866 70.5269 129.893 69.5643C129.172 68.7834 128.978 67.6003 129.484 66.639L129.73 66.1714L129.395 65.7633C127.154 63.0384 127.34 59.0444 129.816 56.5685L131.773 54.6108C131.773 54.6108 131.773 54.6108 131.773 54.6107C134.245 52.1398 134.245 48.0578 131.773 45.5865L131.582 45.7776L131.773 45.5865L131.368 45.1815L130.089 43.9028L130.011 45.7095L129.944 47.2622L129.943 47.2795V47.2866C129.938 47.2949 129.929 47.3085 129.913 47.3283C129.905 47.3322 129.898 47.3361 129.891 47.3397C129.873 47.3489 129.857 47.3573 129.844 47.3643C129.787 47.3939 129.748 47.4127 129.716 47.4263C129.689 47.438 129.673 47.4428 129.666 47.4449C129.648 47.4339 129.61 47.4065 129.545 47.3418L128.983 47.9042L129.545 47.3418C129.541 47.3379 129.534 47.3305 129.527 47.3069C129.518 47.2811 129.509 47.2379 129.508 47.1733L129.643 43.4092ZM133.371 43.8009H133.371C133.371 43.8009 133.371 43.8009 133.371 43.8009ZM130.175 69.2616L130.717 68.72L130.175 69.2616C130.585 69.6712 131.138 69.8492 131.649 69.8492C132.161 69.8492 132.714 69.6712 133.123 69.2616C133.88 68.5058 134.001 67.191 133.123 66.3136L132.561 66.8761L133.123 66.3136C132.714 65.904 132.161 65.726 131.649 65.726C131.138 65.726 130.585 65.904 130.175 66.3136C129.766 66.7233 129.588 67.2758 129.588 67.7876C129.588 68.2994 129.766 68.8519 130.175 69.2616Z" stroke="#E92129" stroke-width="1.59084"/>
<path d="M138.653 58.2328V58.2474C138.652 58.3145 138.647 58.358 138.643 58.3838L137.485 59.4781L136.873 60.0564L137.485 60.6346L138.685 61.7681L138.686 61.7696C138.687 61.7721 138.69 61.7767 138.693 61.7838C138.698 61.7985 138.704 61.8221 138.704 61.8539C138.704 61.9122 138.685 61.9738 138.651 62.0241C138.629 62.0268 138.603 62.0287 138.571 62.0287C138.522 62.0287 138.5 62.0245 138.494 62.0228C138.493 62.0226 138.493 62.0223 138.492 62.022C138.489 62.0194 138.477 62.0111 138.458 61.9918L137.243 60.7768L136.695 60.2294L136.133 60.7617L134.85 61.9767L134.8 62.0243C134.779 62.027 134.753 62.0287 134.722 62.0287C134.674 62.0287 134.652 62.0245 134.645 62.0228C134.645 62.0226 134.644 62.0223 134.644 62.022C134.64 62.0194 134.628 62.0111 134.609 61.9918L134.578 61.9608C134.594 61.9066 134.606 61.8739 134.617 61.849C134.629 61.8239 134.642 61.802 134.671 61.7722L135.876 60.6341L136.488 60.0559L135.876 59.4776L134.661 58.3299L134.575 58.2492L134.572 58.2478C134.572 58.243 134.572 58.238 134.572 58.2328C134.572 58.1845 134.577 58.1624 134.578 58.1558C134.578 58.1554 134.579 58.155 134.579 58.1546C134.582 58.1507 134.59 58.1392 134.609 58.1199L134.641 58.0877C134.663 58.0849 134.69 58.083 134.722 58.083C134.77 58.083 134.792 58.0872 134.799 58.0889C134.799 58.0891 134.8 58.0894 134.8 58.0897C134.804 58.0923 134.816 58.1006 134.835 58.1199L136.05 59.3349L136.612 59.8974L137.175 59.3349L138.39 58.1199L138.422 58.0877C138.444 58.0849 138.471 58.083 138.503 58.083C138.551 58.083 138.573 58.0872 138.58 58.0889C138.58 58.0891 138.581 58.0894 138.581 58.0897C138.585 58.0923 138.596 58.1006 138.616 58.1199L138.648 58.1521C138.651 58.1736 138.653 58.2006 138.653 58.2328ZM138.491 62.0221C138.491 62.0221 138.492 62.0222 138.493 62.0225L138.491 62.0221ZM134.643 62.0221C134.643 62.0221 134.643 62.0222 134.644 62.0225L134.643 62.0221ZM134.579 58.1535C134.579 58.1535 134.579 58.1539 134.578 58.1546L134.579 58.1535ZM134.801 58.0896C134.801 58.0896 134.801 58.0895 134.8 58.0892L134.801 58.0896ZM138.582 58.0896C138.582 58.0896 138.582 58.0895 138.581 58.0892L138.582 58.0896Z" stroke="#E92129" stroke-width="1.59084"/>
<path d="M121.848 41.9405L121.816 41.9083C121.813 41.8891 121.811 41.8655 121.811 41.8377V41.8277C121.811 41.8224 121.811 41.8174 121.811 41.8127L121.814 41.8113L121.899 41.7307L123.114 40.5834L123.727 40.0052L123.115 39.4268L121.9 38.2791L121.814 38.1985L121.811 38.197C121.811 38.1923 121.811 38.1873 121.811 38.182C121.811 38.182 121.811 38.1819 121.811 38.1819C121.811 38.1817 121.811 38.1816 121.811 38.1802C121.812 38.1777 121.814 38.169 121.822 38.1518C121.836 38.1219 121.855 38.089 121.889 38.0358C121.909 38.0336 121.933 38.0322 121.961 38.0322C122.009 38.0322 122.031 38.0365 122.038 38.0381C122.038 38.0383 122.039 38.0386 122.039 38.0389C122.043 38.0416 122.055 38.0499 122.074 38.0691L122.636 37.5067L122.074 38.0691L123.289 39.2842L123.851 39.8466L124.414 39.2842L125.629 38.0691L125.661 38.0369C125.682 38.0341 125.709 38.0322 125.742 38.0322C125.79 38.0322 125.812 38.0365 125.819 38.0381C125.819 38.0383 125.819 38.0386 125.82 38.0389C125.824 38.0416 125.835 38.0499 125.855 38.0691L125.88 38.0946L125.908 38.1176C125.908 38.1179 125.909 38.1186 125.91 38.1202C125.911 38.122 125.913 38.1253 125.916 38.1307C125.921 38.1422 125.925 38.16 125.925 38.1818C125.925 38.2035 125.921 38.2213 125.916 38.2328C125.913 38.2382 125.911 38.2415 125.91 38.2433C125.909 38.2449 125.908 38.2456 125.908 38.2459L125.889 38.2617L125.871 38.2786L124.656 39.4263L124.044 40.0046L124.656 40.5828L125.871 41.7305L125.956 41.8112L125.959 41.8126C125.959 41.8174 125.959 41.8224 125.959 41.8276C125.959 41.876 125.955 41.898 125.953 41.9046C125.953 41.905 125.953 41.9054 125.953 41.9059C125.95 41.9098 125.942 41.9213 125.922 41.9405L125.89 41.9727C125.869 41.9755 125.842 41.9774 125.809 41.9774C125.761 41.9774 125.739 41.9732 125.732 41.9715C125.732 41.9713 125.732 41.971 125.731 41.9707C125.727 41.9681 125.716 41.9598 125.697 41.9405L124.482 40.7255L123.934 40.1781L123.372 40.7104L122.089 41.9254L122.039 41.973C122.018 41.9757 121.992 41.9774 121.961 41.9774C121.912 41.9774 121.89 41.9732 121.884 41.9715C121.883 41.9713 121.883 41.971 121.883 41.9707C121.879 41.9681 121.867 41.9598 121.848 41.9405ZM122.04 38.0388C122.04 38.0388 122.04 38.0387 122.039 38.0384L122.04 38.0388ZM125.821 38.0388C125.821 38.0388 125.821 38.0387 125.82 38.0384L125.821 38.0388ZM125.953 41.9069C125.953 41.9069 125.953 41.9065 125.953 41.9058L125.953 41.9069ZM125.73 41.9708C125.73 41.9708 125.731 41.9709 125.731 41.9712L125.73 41.9708ZM121.882 41.9708C121.882 41.9708 121.882 41.9709 121.883 41.9712L121.882 41.9708Z" stroke="#E92129" stroke-width="1.59084"/>
</g>
<g filter="url(#filter1_d_284_1465)">
<rect x="423.769" y="25.7505" width="56.8158" height="56.8158" rx="28.4079" fill="white" shape-rendering="crispEdges"/>
</g>
<g filter="url(#filter2_d_284_1465)">
<rect x="250.545" y="104.018" width="56.8158" height="56.8158" rx="28.4079" fill="white" shape-rendering="crispEdges"/>
<path d="M288.042 118.426C288.042 118.108 288.3 117.85 288.618 117.85H293.149C293.466 117.85 293.724 118.108 293.724 118.426V122.956C293.724 123.274 293.466 123.532 293.149 123.532H288.618C288.3 123.532 288.042 123.274 288.042 122.956V118.426Z" stroke="#E92129" stroke-width="1.59084"/>
<path d="M288.042 127.517C288.042 127.199 288.3 126.941 288.618 126.941H293.149C293.466 126.941 293.724 127.199 293.724 127.517V132.047C293.724 132.365 293.466 132.623 293.149 132.623H288.618C288.3 132.623 288.042 132.365 288.042 132.047V127.517Z" stroke="#E92129" stroke-width="1.59084"/>
<path d="M280.09 118.426C280.09 118.108 280.348 117.85 280.665 117.85H285.196C285.514 117.85 285.771 118.108 285.771 118.426V122.956C285.771 123.274 285.514 123.532 285.196 123.532H280.665C280.348 123.532 280.09 123.274 280.09 122.956V118.426Z" stroke="#E92129" stroke-width="1.59084"/>
<path d="M280.09 127.517C280.09 127.199 280.348 126.941 280.665 126.941H285.196C285.514 126.941 285.771 127.199 285.771 127.517V132.047C285.771 132.365 285.514 132.623 285.196 132.623H280.665C280.348 132.623 280.09 132.365 280.09 132.047V127.517Z" stroke="#E92129" stroke-width="1.59084"/>
<path d="M276.68 121.045C277.12 121.045 277.476 120.689 277.476 120.25C277.476 119.81 277.12 119.454 276.68 119.454V121.045ZM266.778 120.25V119.454V120.25ZM264.749 122.279H263.954H264.749ZM264.749 138.512H263.954H264.749ZM274.895 140.541H275.69C275.69 140.102 275.334 139.746 274.895 139.746V140.541ZM274.895 146.015V146.81H275.69V146.015H274.895ZM270.836 145.219C270.397 145.219 270.041 145.575 270.041 146.015C270.041 146.454 270.397 146.81 270.836 146.81V145.219ZM287.07 146.81C287.509 146.81 287.865 146.454 287.865 146.015C287.865 145.575 287.509 145.219 287.07 145.219V146.81ZM283.011 146.015H282.216V146.81H283.011V146.015ZM283.011 140.541V139.746C282.572 139.746 282.216 140.102 282.216 140.541H283.011ZM293.953 135.833C293.953 135.394 293.597 135.038 293.157 135.038C292.718 135.038 292.362 135.394 292.362 135.833H293.953ZM280.295 142.984C280.734 142.984 281.09 142.627 281.09 142.188C281.09 141.749 280.734 141.393 280.295 141.393V142.984ZM277.537 141.393C277.098 141.393 276.741 141.749 276.741 142.188C276.741 142.627 277.098 142.984 277.537 142.984V141.393ZM276.68 119.454H266.778V121.045H276.68V119.454ZM266.778 119.454C266.029 119.454 265.311 119.752 264.781 120.281L265.906 121.406C266.137 121.175 266.451 121.045 266.778 121.045V119.454ZM264.781 120.281C264.251 120.811 263.954 121.53 263.954 122.279H265.544C265.544 121.951 265.674 121.638 265.906 121.406L264.781 120.281ZM263.954 122.279V138.512H265.544V122.279H263.954ZM263.954 138.512C263.954 139.261 264.251 139.979 264.781 140.509L265.906 139.384C265.674 139.153 265.544 138.839 265.544 138.512H263.954ZM264.781 140.509C265.311 141.039 266.029 141.336 266.778 141.336V139.746C266.451 139.746 266.137 139.616 265.906 139.384L264.781 140.509ZM266.778 141.336H274.895V139.746H266.778V141.336ZM274.099 140.541V146.015H275.69V140.541H274.099ZM274.895 145.219H270.836V146.81H274.895V145.219ZM287.07 145.219H283.011V146.81H287.07V145.219ZM283.807 146.015V140.541H282.216V146.015H283.807ZM283.011 141.336H291.128V139.746H283.011V141.336ZM291.128 141.336C291.877 141.336 292.596 141.039 293.125 140.509L292 139.384C291.769 139.616 291.455 139.746 291.128 139.746V141.336ZM293.125 140.509C293.655 139.979 293.953 139.261 293.953 138.512H292.362C292.362 138.839 292.232 139.153 292 139.384L293.125 140.509ZM293.953 138.512V135.833H292.362V138.512H293.953ZM280.295 141.393H277.537V142.984H280.295V141.393ZM287.07 145.219H270.836V146.81H287.07V145.219Z" fill="#E92129"/>
</g>
<path d="M97.3081 13.4292H96.2698V5.0851H99.6224C101.299 5.0851 102.237 6.23601 102.237 7.59959C102.237 8.96317 101.274 10.1141 99.6224 10.1141H97.3081V13.4292ZM99.4973 9.18835C100.486 9.18835 101.161 8.53783 101.161 7.59959C101.161 6.66135 100.486 6.01083 99.4973 6.01083H97.3081V9.18835H99.4973ZM108.779 13.4292H103.862V5.0851H104.901V12.5035H108.779V13.4292ZM117.633 13.4292H116.444L115.706 11.5777H111.553L110.815 13.4292H109.626L112.979 5.0851H114.268L117.633 13.4292ZM115.393 10.652L113.63 6.16095L111.853 10.652H115.393ZM125.879 13.4292H124.878L120.012 6.77394V13.4292H118.974V5.0851H120.037L124.841 11.6028V5.0851H125.879V13.4292ZM134.987 13.4292H133.986L129.119 6.77394V13.4292H128.081V5.0851H129.144L133.948 11.6028V5.0851H134.987V13.4292ZM138.227 13.4292H137.188V5.0851H138.227V13.4292ZM147.337 13.4292H146.336L141.47 6.77394V13.4292H140.432V5.0851H141.495L146.299 11.6028V5.0851H147.337V13.4292ZM153.492 13.5918C151.115 13.5918 149.201 11.853 149.201 9.2634C149.201 6.67386 151.115 4.94749 153.492 4.94749C154.968 4.94749 155.994 5.59801 156.732 6.51123L155.907 7.02413C155.381 6.3486 154.493 5.87322 153.492 5.87322C151.666 5.87322 150.277 7.27433 150.277 9.2634C150.277 11.24 151.666 12.6661 153.492 12.6661C154.493 12.6661 155.319 12.1782 155.731 11.7654V10.064H152.867V9.13831H156.77V12.1532C155.994 13.0164 154.856 13.5918 153.492 13.5918Z" fill="#292929"/>
<path d="M237.223 190.105H234.371V181.761H237.223C239.813 181.761 241.502 183.575 241.502 185.94C241.502 188.317 239.813 190.105 237.223 190.105ZM237.223 189.18C239.25 189.18 240.426 187.729 240.426 185.94C240.426 184.138 239.287 182.687 237.223 182.687H235.409V189.18H237.223ZM248.847 190.105H243.38V181.761H248.847V182.687H244.419V185.377H248.76V186.302H244.419V189.18H248.847V190.105ZM254.531 190.105H253.242L249.89 181.761H251.078L253.893 188.967L256.708 181.761H257.896L254.531 190.105ZM264.704 190.105H259.237V181.761H264.704V182.687H260.276V185.377H264.617V186.302H260.276V189.18H264.704V190.105ZM271.526 190.105H266.61V181.761H267.648V189.18H271.526V190.105ZM276.613 190.256C274.136 190.256 272.472 188.404 272.472 185.94C272.472 183.475 274.136 181.624 276.613 181.624C279.077 181.624 280.753 183.475 280.753 185.94C280.753 188.404 279.077 190.256 276.613 190.256ZM276.613 189.33C278.477 189.33 279.677 187.879 279.677 185.94C279.677 183.988 278.477 182.549 276.613 182.549C274.736 182.549 273.548 183.988 273.548 185.94C273.548 187.879 274.736 189.33 276.613 189.33ZM283.664 190.105H282.625V181.761H285.978C287.654 181.761 288.593 182.912 288.593 184.276C288.593 185.639 287.629 186.79 285.978 186.79H283.664V190.105ZM285.853 185.865C286.841 185.865 287.517 185.214 287.517 184.276C287.517 183.338 286.841 182.687 285.853 182.687H283.664V185.865H285.853ZM298.387 190.105H297.348V183.238L294.509 190.105H294.083L291.256 183.238V190.105H290.218V181.761H291.706L294.296 188.041L296.898 181.761H298.387V190.105ZM306.05 190.105H300.583V181.761H306.05V182.687H301.622V185.377H305.963V186.302H301.622V189.18H306.05V190.105ZM314.861 190.105H313.861L308.994 183.45V190.105H307.956V181.761H309.019L313.823 188.279V181.761H314.861V190.105ZM320.166 190.105H319.127V182.687H316.488V181.761H322.818V182.687H320.166V190.105Z" fill="#292929"/>
<defs>
<filter id="filter0_d_284_1465" x="80.7738" y="16.5426" width="89.0436" height="89.0436" filterUnits="userSpaceOnUse" color-interpolation-filters="sRGB">
<feFlood flood-opacity="0" result="BackgroundImageFix"/>
<feColorMatrix in="SourceAlpha" type="matrix" values="0 0 0 0 0 0 0 0 0 0 0 0 0 0 0 0 0 0 127 0" result="hardAlpha"/>
<feOffset dy="6.90594"/>
<feGaussianBlur stdDeviation="8.05692"/>
<feComposite in2="hardAlpha" operator="out"/>
<feColorMatrix type="matrix" values="0 0 0 0 0 0 0 0 0 0 0 0 0 0 0 0 0 0 0.05 0"/>
<feBlend mode="normal" in2="BackgroundImageFix" result="effect1_dropShadow_284_1465"/>
<feBlend mode="normal" in="SourceGraphic" in2="effect1_dropShadow_284_1465" result="shape"/>
</filter>
<filter id="filter1_d_284_1465" x="407.655" y="16.5426" width="89.0436" height="89.0436" filterUnits="userSpaceOnUse" color-interpolation-filters="sRGB">
<feFlood flood-opacity="0" result="BackgroundImageFix"/>
<feColorMatrix in="SourceAlpha" type="matrix" values="0 0 0 0 0 0 0 0 0 0 0 0 0 0 0 0 0 0 127 0" result="hardAlpha"/>
<feOffset dy="6.90594"/>
<feGaussianBlur stdDeviation="8.05692"/>
<feComposite in2="hardAlpha" operator="out"/>
<feColorMatrix type="matrix" values="0 0 0 0 0 0 0 0 0 0 0 0 0 0 0 0 0 0 0.05 0"/>
<feBlend mode="normal" in2="BackgroundImageFix" result="effect1_dropShadow_284_1465"/>
<feBlend mode="normal" in="SourceGraphic" in2="effect1_dropShadow_284_1465" result="shape"/>
</filter>
<filter id="filter2_d_284_1465" x="234.431" y="94.8097" width="89.0436" height="89.0436" filterUnits="userSpaceOnUse" color-interpolation-filters="sRGB">
<feFlood flood-opacity="0" result="BackgroundImageFix"/>
<feColorMatrix in="SourceAlpha" type="matrix" values="0 0 0 0 0 0 0 0 0 0 0 0 0 0 0 0 0 0 127 0" result="hardAlpha"/>
<feOffset dy="6.90594"/>
<feGaussianBlur stdDeviation="8.05692"/>
<feComposite in2="hardAlpha" operator="out"/>
<feColorMatrix type="matrix" values="0 0 0 0 0 0 0 0 0 0 0 0 0 0 0 0 0 0 0.05 0"/>
<feBlend mode="normal" in2="BackgroundImageFix" result="effect1_dropShadow_284_1465"/>
<feBlend mode="normal" in="SourceGraphic" in2="effect1_dropShadow_284_1465" result="shape"/>
</filter>
</defs>
</svg>
