<svg width="200" height="47" viewBox="0 0 200 47" fill="none" xmlns="http://www.w3.org/2000/svg">
<path d="M57.7592 36.4795C58.3341 35.602 58.7182 34.6136 58.8865 33.5781C58.9309 33.3274 58.9617 33.0745 58.9789 32.8204C58.9789 32.6911 58.9789 32.571 58.9789 32.4416V32.1182V31.1018L58.9234 27.027L58.7756 18.8773L58.6832 14.8117V12.7697C58.6832 12.4185 58.6832 12.1506 58.637 11.6147C58.6002 11.1236 58.5135 10.6375 58.3783 10.164C58.091 9.15655 57.5538 8.23801 56.8167 7.49363C56.0219 6.68912 54.9938 6.15564 53.8784 5.96903C52.7395 5.78889 51.5733 6.00064 50.5705 6.56963C50.1153 6.82056 49.6957 7.13132 49.3231 7.49363L49.0551 7.77083L48.8888 7.97411L48.5561 8.36219C43.2247 14.6823 39.464 19.2561 36.1006 23.4419L29.4478 19.2192L27.3596 17.9625C31.3882 13.167 35.2136 8.44535 42.6426 0C34.3266 7.98335 29.9376 12.1968 25.3638 16.6874C22.1205 14.6546 18.8958 12.6126 15.6063 10.589L12.1506 8.44535L10.4227 7.39199L9.55415 6.85607L9.33239 6.72671L8.93507 6.46799C8.65449 6.32737 8.36423 6.20694 8.06651 6.10763C6.82385 5.70112 5.47883 5.73703 4.25964 6.20927C3.18222 6.62936 2.23979 7.33538 1.53384 8.25131C0.889461 9.08895 0.435405 10.057 0.203281 11.088C0.0857546 11.5852 0.0176624 12.0928 0 12.6033V13.7399L0.129359 21.8895C0.129359 24.6061 0.221761 27.3226 0.286441 30.0392V32.072V33.0884C0.292195 33.5207 0.319951 33.9525 0.369601 34.382C0.511108 35.3741 0.874297 36.3215 1.4322 37.154C2.05519 38.0594 2.92399 38.7679 3.93624 39.196C5.00555 39.6336 6.19233 39.6923 7.29959 39.3624C7.82536 39.2009 8.32376 38.961 8.77799 38.6509C8.99006 38.5061 9.19084 38.3455 9.37859 38.1704C9.48023 38.0872 9.56339 37.9948 9.65579 37.9117L9.77591 37.7823L9.85907 37.6899L12.6311 34.6962C17.5098 29.3924 20.8639 25.5855 23.7191 22.2684L26.4356 24.024L32.5802 27.8863C28.4684 33.0699 24.3289 38.3922 17.7315 46.5973C25.1975 38.808 29.9376 33.9754 34.5945 29.1152L40.2124 32.6449L47.1332 36.96L48.8611 38.0318L49.2953 38.2998L49.5079 38.4384L49.6187 38.503L49.8128 38.6139C50.3621 38.9348 50.962 39.1598 51.5869 39.2792C52.2285 39.3946 52.8856 39.3946 53.5273 39.2792C54.1389 39.1764 54.731 38.9801 55.2829 38.6971C56.281 38.177 57.1326 37.4145 57.7592 36.4795ZM9.94223 32.0628L7.03163 34.9549L6.94847 35.0473H6.88379L6.78215 35.1397L6.58811 35.2783C6.47136 35.3401 6.34714 35.3867 6.21851 35.4169C6.00769 35.459 5.78876 35.4264 5.59943 35.3245C5.34146 35.1544 5.12854 34.9243 4.97889 34.654C4.82923 34.3836 4.74731 34.0811 4.74012 33.7722C4.74012 33.5689 4.74012 33.421 4.74012 33.0237V32.0073V29.9745C4.80172 27.258 4.85716 24.5414 4.90644 21.8249L5.18363 13.7214V12.7974C5.19177 12.6254 5.21968 12.4548 5.26679 12.2892C5.34074 11.9924 5.48314 11.7171 5.68259 11.4853C5.81365 11.3205 5.98572 11.193 6.18156 11.1157C6.2533 11.0903 6.33157 11.0903 6.40331 11.1157L12.7142 15.1721C15.5786 17.0201 18.4492 18.8681 21.3259 20.7161L9.94223 32.0628ZM54.1556 12.7697V14.784L54.0724 18.8496L53.9246 26.9992L53.8691 31.0741V32.34C53.8734 32.383 53.8734 32.4263 53.8691 32.4693C53.8691 32.5525 53.8691 32.6356 53.8691 32.7188C53.8118 33.0277 53.6889 33.3207 53.5088 33.5781C53.3768 33.7698 53.1989 33.9255 52.9913 34.0309C52.9081 34.0629 52.8159 34.0629 52.7326 34.0309L52.6217 33.9662L51.8456 33.4672L50.0253 32.34L43.1692 27.9417L38.5492 24.9757C42.1436 21.252 46.0706 16.9554 51.4945 11.088L51.8456 10.7091L52.0027 10.5336L52.0951 10.4504C52.2126 10.3501 52.3431 10.2662 52.4831 10.2009C52.6811 10.104 52.9073 10.0811 53.1207 10.1363C53.3852 10.225 53.621 10.3834 53.8031 10.5948C53.9852 10.8062 54.107 11.0627 54.1556 11.3375C54.1964 11.5195 54.2181 11.7053 54.2203 11.8919L54.1556 12.7697Z" fill="#E4252C"/>
<path d="M86.5694 31.7395C86.5782 31.8995 86.5523 32.0595 86.4933 32.2086C86.4343 32.3576 86.3438 32.492 86.2279 32.6027C86.1119 32.7134 85.9734 32.7976 85.8218 32.8495C85.6702 32.9015 85.5091 32.92 85.3497 32.9037C85.0688 32.9091 84.7927 32.8301 84.5571 32.6769C84.3216 32.5237 84.1374 32.3034 84.0284 32.0444L77.9947 18.8405C77.1353 16.475 75.851 15.0059 72.9681 15.0059C69.7526 15.0059 68.2188 16.8539 68.2188 19.5057V36.0546H71.8316V19.6905C71.8193 19.5252 71.8439 19.3592 71.9037 19.2046C71.9634 19.0499 72.0568 18.9105 72.1771 18.7964C72.2974 18.6823 72.4416 18.5964 72.5991 18.5449C72.7567 18.4934 72.9238 18.4776 73.0882 18.4986C73.3763 18.485 73.6605 18.5688 73.8952 18.7364C74.1298 18.904 74.3012 19.1457 74.3818 19.4226L80.4155 32.5896C81.2749 34.955 82.5869 36.4242 85.4698 36.4242C88.6576 36.4242 90.2192 34.5762 90.2192 31.8873V15.3755H86.5694V31.7395Z" fill="black"/>
<path d="M95.5049 15.3755H91.8921V36.0546H95.5049V15.3755Z" fill="black"/>
<path d="M138.443 15.3755H133.943L127.29 22.9985L120.951 15.3755H115.213L108.57 22.9985L102.222 15.3755H97.7866L106.186 25.2715L96.9458 36.0546H101.418L108.468 27.8402L115.343 36.0546H120.157L127.198 27.8402L134.063 36.0546H138.443L129.563 25.5487L138.443 15.3755ZM117.727 33.6707L110.834 25.5487L118.096 17.2327L124.934 25.2992L117.727 33.6707Z" fill="black"/>
<path d="M151.296 23.8948H146.454C144.033 23.8948 143.386 22.6936 143.386 21.4369C143.386 20.0047 144.218 18.9883 146.084 18.9883H156.682V15.3755H146.204C141.584 15.3755 139.736 17.8888 139.736 21.3168C139.736 24.1997 141.021 27.2951 146.537 27.2951H151.379C153.92 27.2951 154.622 28.5148 154.622 29.8638C154.622 31.3699 153.698 32.4417 151.776 32.4417H140.143V36.0546H151.656C156.378 36.0546 158.244 33.4859 158.244 29.9932C158.244 27.0179 156.923 23.8948 151.296 23.8948Z" fill="black"/>
<path d="M172.141 15.3755H169.314C163.317 15.3755 159.972 18.8035 159.972 25.7612C159.972 32.7189 163.28 36.0546 169.314 36.0546H172.141C178.175 36.0546 181.483 32.682 181.483 25.7612C181.483 18.8405 178.175 15.3755 172.141 15.3755ZM172.141 32.4417H169.314C165.304 32.4417 163.585 30.4829 163.585 25.7612C163.585 21.0396 165.331 18.9883 169.314 18.9883H172.141C176.124 18.9883 177.833 21.0119 177.833 25.7335C177.833 30.4552 176.124 32.4417 172.141 32.4417Z" fill="black"/>
<path d="M191.97 32.4417C188.718 32.4417 187.738 30.8802 187.738 28.8844V15.3755H184.125V28.9121C184.125 33.0516 186.269 36.0546 191.758 36.0546H200V32.4417H191.97Z" fill="black"/>
<path d="M95.5049 10.1733H91.8921V13.7862H95.5049V10.1733Z" fill="#E4252C"/>
</svg>
