<svg width="46" height="46" viewBox="0 0 46 46" fill="none" xmlns="http://www.w3.org/2000/svg">
<g id="mission" clip-path="url(#clip0_1_137)">
<g id="Group">
<path id="Vector" d="M44.4367 20.8886C44.4367 22.0279 44.4367 23.1663 44.4367 24.3057C44.4201 24.398 44.3954 24.4904 44.3871 24.5837C44.255 26.1007 43.9613 27.5887 43.4567 29.0241C40.9856 36.0557 36.2344 40.7805 28.9461 42.9134C27.7074 43.2756 26.4292 43.4377 25.1501 43.5854C23.8591 43.5854 22.5671 43.5854 21.2761 43.5854C20.5319 43.4703 19.7804 43.3897 19.0445 43.2349C14.3521 42.2486 10.4524 39.9129 7.34177 36.3374C2.52266 30.7983 1.09399 24.4062 2.89611 17.3837C4.40553 11.506 8.09235 7.20679 13.4804 4.36211C17.7856 2.08891 22.3809 1.37796 27.2036 2.22294C29.9169 2.69842 32.4155 3.71547 34.7223 5.19351C35.0232 5.38642 35.2077 5.37283 35.4554 5.11472C36.0885 4.4554 36.7492 3.82234 37.4034 3.18385C37.6906 2.904 37.7338 2.91396 37.8154 3.3043C38.0843 4.59034 38.354 5.87547 38.5999 7.16604C38.6642 7.50385 38.8266 7.63608 39.1578 7.69766C40.4645 7.94128 41.7647 8.22023 43.0713 8.46838C43.431 8.5363 43.4117 8.64679 43.1878 8.86506C42.5327 9.50355 41.8968 10.1611 41.2288 10.7851C40.9563 11.0395 40.9379 11.2288 41.1444 11.5404C42.2648 13.2285 43.1053 15.048 43.6815 16.9861C44.0614 18.2631 44.2706 19.5718 44.4367 20.8886ZM33.9432 14.5218C33.9267 14.6712 34.0231 14.7419 34.0864 14.8252C36.4721 17.9832 37.2823 21.5054 36.4611 25.349C34.915 32.5897 28.0276 37.3825 20.3897 35.6989C13.4308 34.1647 8.90624 27.5742 10.0688 20.558C10.69 16.8131 12.6766 13.8969 15.8679 11.8012C18.5793 10.0207 21.5817 9.26083 24.829 9.57328C27.233 9.80513 29.4022 10.6728 31.3327 12.1128C31.4337 12.1879 31.5319 12.3609 31.6722 12.2685C31.7778 12.1979 31.6888 12.043 31.6649 11.9262C31.5208 11.2225 31.3878 10.517 31.2318 9.81691C31.1602 9.49721 31.2144 9.25811 31.4731 9.02536C31.9494 8.59608 32.3916 8.12966 32.8477 7.67955C33.2587 7.27291 33.2597 7.27109 32.7467 6.97404C29.026 4.81676 25.0281 3.99804 20.7567 4.64106C15.9083 5.37102 11.8673 7.59532 8.81265 11.3765C4.72301 16.4373 3.77056 22.1837 5.63508 28.3168C8.25935 36.9487 17.359 42.3627 26.4815 40.8258C32.8339 39.7553 37.4117 36.1644 40.1828 30.427C41.7839 27.1123 42.1886 23.5793 41.6702 19.9522C41.3325 17.5902 40.5232 15.3849 39.2615 13.3435C39.0863 13.0592 38.9569 13.0166 38.711 13.2738C38.2109 13.7955 37.6805 14.2891 37.174 14.8044C37.0043 14.9774 36.8345 15.0417 36.5895 14.9882C35.9463 14.8488 35.3003 14.722 34.6525 14.6088C34.4195 14.5662 34.1892 14.4448 33.9432 14.5218ZM23.3682 33.4755C25.4529 33.4782 27.4138 32.9855 29.1315 31.8181C32.7541 29.3547 34.4387 25.9295 34.1112 21.5823C33.9708 19.7103 33.2496 18.0421 32.1531 16.5206C31.942 16.2281 31.7934 16.1909 31.5227 16.4663C30.5748 17.429 29.6104 18.3745 28.6397 19.3146C28.4249 19.5229 28.4057 19.685 28.5525 19.9458C29.1902 21.0824 29.4205 22.2933 29.2251 23.5911C28.8195 26.2827 26.4237 28.776 23.0342 28.6546C20.186 28.5523 17.6196 26.1894 17.3929 23.3031C17.2121 21.0036 18.0994 19.1479 20.0603 17.8854C22.0074 16.632 24.0692 16.5088 26.1493 17.5938C26.476 17.7641 26.6513 17.7079 26.8862 17.4706C27.7982 16.5496 28.7277 15.6457 29.6499 14.7346C30.0417 14.3479 30.0435 14.3289 29.5939 14.0165C27.0431 12.245 24.238 11.669 21.1843 12.2939C15.4825 13.4613 11.7773 18.6344 12.5802 24.3011C13.3198 29.5404 17.9453 33.4728 23.3682 33.4755ZM19.9704 22.6845C19.9685 24.7096 21.3991 26.1143 23.4636 26.0654C25.931 26.0065 27.0825 23.7215 26.5815 21.8613C26.498 21.5506 26.3898 21.5235 26.1576 21.7617C25.6061 22.3286 25.029 22.872 24.4748 23.4362C24.2793 23.6346 24.1353 23.6509 23.9352 23.4426C23.5196 23.0106 23.0938 22.5858 22.6525 22.1783C22.4194 21.9627 22.457 21.8169 22.6681 21.6158C23.2315 21.0797 23.7792 20.5272 24.3316 19.9793C24.6106 19.7022 24.5977 19.6506 24.2362 19.5437C22.1781 18.9369 19.9713 20.5608 19.9704 22.6845ZM38.2476 10.1176C37.7567 10.018 37.3447 9.91743 36.9263 9.85585C36.6033 9.80785 36.4647 9.64574 36.4051 9.33509C36.3262 8.92121 36.2941 8.49011 36.1078 8.06898C35.4279 8.73464 34.7773 9.37223 34.1249 10.0089C33.9928 10.1375 33.9735 10.2951 34.0047 10.4599C34.0809 10.8584 34.1671 11.2551 34.246 11.6527C34.2745 11.7949 34.3369 11.9262 34.4828 11.9579C34.9636 12.0611 35.4481 12.149 35.9326 12.2359C36.0463 12.2568 36.1509 12.2088 36.2317 12.1281C36.8868 11.477 37.5401 10.824 38.2476 10.1176Z" fill="#E92129"/>
</g>
</g>
<defs>
<clipPath id="clip0_1_137">
<rect width="45.283" height="45.283" fill="white" transform="translate(0.358521)"/>
</clipPath>
</defs>
</svg>
