<svg width="46" height="46" viewBox="0 0 46 46" fill="none" xmlns="http://www.w3.org/2000/svg">
<g id="values" clip-path="url(#clip0_1_156)">
<g id="Group">
<path id="Vector" d="M8.85508 43.6434C7.45946 43.6434 6.06383 43.6452 4.66912 43.6425C4.11032 43.6416 3.92919 43.4741 3.86398 42.9433C3.50625 40.0289 3.1458 37.1154 2.78897 34.201C2.51274 31.9477 2.23832 29.6935 1.96572 27.4403C1.87425 26.6886 2.09795 26.4196 2.84783 26.416C4.57674 26.4078 6.30564 26.4087 8.03546 26.416C8.72557 26.4187 8.875 26.54 9.07606 27.1876C9.22368 27.6658 9.3867 28.1394 9.50806 28.624C9.60768 29.0215 9.79153 29.0433 10.1275 28.8821C10.7117 28.6004 11.2026 28.201 11.6626 27.759C12.936 26.5364 14.4421 25.7747 16.1792 25.4759C18.0457 25.1553 19.8371 25.4188 21.5253 26.2656C22.5133 26.761 23.5331 27.0119 24.6362 26.963C25.1959 26.9376 25.7629 26.9132 26.3189 26.9684C27.4084 27.0762 28.3784 26.8144 29.2804 26.2067C29.669 25.945 30.0992 25.7458 30.513 25.523C31.944 24.7504 33.3532 24.7658 34.728 25.657C34.9354 25.791 35.102 25.8517 35.3465 25.7186C36.5801 25.0475 37.7221 25.2929 38.7555 26.1488C39.0262 26.3734 39.2065 26.4304 39.5398 26.2738C41.045 25.5673 42.8681 26.0781 43.8235 27.4357C44.1849 27.9501 44.136 28.2544 43.6116 28.614C39.5244 31.4215 35.4453 34.2427 31.3408 37.0249C30.1734 37.8164 28.8068 38.079 27.4157 38.1787C25.8045 38.2946 24.2586 37.8617 22.6954 37.5882C21.0099 37.2929 19.3318 36.9596 17.6481 36.6572C17.1229 36.563 16.6238 36.6762 16.1683 36.9642C15.1304 37.6208 14.0943 38.281 13.0492 38.9267C12.8019 39.0798 12.7358 39.2301 12.83 39.519C13.1615 40.5424 13.4649 41.5749 13.7737 42.6055C14.0056 43.3808 13.8072 43.6443 12.9976 43.6452C11.6155 43.6443 10.2353 43.6434 8.85508 43.6434ZM27.4546 36.9606C28.3721 36.9433 29.7876 36.6599 31.0465 35.7787C32.5245 34.7435 34.0207 33.7337 35.5087 32.7121C37.7348 31.1852 39.96 29.6573 42.1852 28.1295C42.5936 27.8487 42.5955 27.7609 42.1743 27.5118C41.4253 27.068 40.6447 27.0218 39.8758 27.4312C37.7873 28.5424 35.7106 29.6736 33.6276 30.7957C33.4628 30.8845 33.3269 30.975 33.2979 31.1915C33.2373 31.6543 32.9321 31.8237 32.4928 31.8046C31.5998 31.7666 30.705 31.7467 29.813 31.6878C28.2063 31.5827 26.6033 31.5601 25.0039 31.7711C24.5927 31.8255 24.2685 31.6163 24.2151 31.2676C24.1616 30.9198 24.4161 30.6246 24.8346 30.5766C25.7375 30.4715 26.6404 30.3809 27.5524 30.3864C28.8566 30.3945 30.1571 30.467 31.4567 30.5593C31.9911 30.5974 32.0608 30.5141 31.8335 30.0132C31.2901 28.8141 30.3328 28.2074 29.0368 28.1775C27.6575 28.1449 26.2755 28.1322 24.8961 28.1802C23.4652 28.23 22.1619 27.8849 20.8596 27.2963C17.9742 25.9921 15.249 26.3254 12.7938 28.3758C11.9905 29.0469 11.2496 29.795 10.2281 30.1427C9.9627 30.2333 10.0569 30.4226 10.1085 30.592C10.8149 32.9113 11.5304 35.228 12.2259 37.551C12.331 37.9006 12.4442 37.8952 12.7177 37.7186C13.6587 37.1073 14.6087 36.5086 15.566 35.9245C16.2598 35.5015 17.0087 35.3195 17.8284 35.4726C19.4359 35.7723 21.0444 36.0685 22.6546 36.3483C24.0566 36.592 25.4368 36.9769 27.4546 36.9606ZM8.72466 42.4887C9.81598 42.4887 10.9082 42.4769 11.9995 42.495C12.3709 42.5014 12.4741 42.4371 12.3491 42.0404C11.7478 40.1331 11.1781 38.2167 10.5949 36.304C9.75983 33.5652 8.91666 30.8292 8.09432 28.0869C7.98836 27.7337 7.82625 27.6096 7.45583 27.616C6.19787 27.6377 4.939 27.6341 3.68013 27.6178C3.35138 27.6132 3.21372 27.6757 3.26534 28.0434C3.38942 28.9273 3.47546 29.8167 3.58323 30.7024C3.84406 32.8507 4.1067 34.998 4.37115 37.1453C4.57493 38.7972 4.79138 40.4473 4.98157 42.1011C5.0187 42.4226 5.15636 42.4969 5.44889 42.4941C6.54112 42.4815 7.63334 42.4887 8.72466 42.4887ZM37.8987 27.0952C37.8887 26.9621 37.8018 26.9222 37.7257 26.876C37.147 26.5264 36.5574 26.4078 35.9262 26.7565C35.0395 27.2455 34.1429 27.7174 33.2545 28.2037C32.472 28.6321 32.4829 28.6321 32.8958 29.4309C33.0118 29.6555 33.1069 29.7153 33.3423 29.5858C34.7878 28.7951 36.2395 28.0163 37.6895 27.2329C37.7656 27.193 37.8353 27.1378 37.8987 27.0952ZM33.7662 26.5518C32.7564 25.8599 31.4386 26.176 30.235 27.1305C30.6398 27.2836 31.0347 27.4303 31.387 27.6676C31.4649 27.7201 31.5555 27.7409 31.6451 27.6929C32.3434 27.318 33.0407 26.9421 33.7662 26.5518Z" fill="#E92129" stroke="#E92129" stroke-width="0.595829" stroke-miterlimit="10"/>
<path id="Vector_2" d="M34.9951 21.1609C33.5995 21.1609 32.2038 21.1745 30.8091 21.1527C30.4016 21.1464 30.2512 21.2868 30.302 21.678C30.3137 21.7677 30.3038 21.86 30.3038 21.9506C30.3011 22.7865 30.1199 22.9722 29.2931 22.9722C25.1225 22.9731 20.951 22.9731 16.7805 22.9722C15.8929 22.9722 15.7081 22.7893 15.7045 21.9144C15.7045 21.8238 15.6946 21.7314 15.7054 21.6418C15.7525 21.2569 15.5732 21.1527 15.2055 21.1545C12.8544 21.1672 10.5042 21.1609 8.15313 21.1609C7.68309 21.1609 7.21215 21.169 6.74302 21.1573C6.24943 21.1455 6.04747 20.948 6.04475 20.4626C6.03841 19.1884 6.01758 17.9141 6.05019 16.6407C6.1009 14.6736 8.08339 12.8161 10.0297 12.8732C10.2724 12.8804 10.4517 12.9973 10.6147 13.1766C11.7169 14.3893 13.2466 14.4373 14.3488 13.2517C14.7291 12.8424 15.1403 12.865 15.5922 12.9493C15.95 13.0154 16.3005 13.1277 16.6201 13.3043C16.8176 13.413 16.9408 13.3776 17.0929 13.2255C17.8835 12.4357 18.8399 11.9992 19.953 11.8733C20.3225 11.8317 20.5951 11.9159 20.8405 12.1939C22.0976 13.6176 23.9406 13.6457 25.2547 12.2555C25.5273 11.9675 25.8008 11.8389 26.2147 11.8978C27.21 12.0391 28.0795 12.4231 28.7986 13.1195C29.0214 13.3351 29.1898 13.4338 29.495 13.259C29.7531 13.1114 30.0583 13.0398 30.35 12.9619C30.9395 12.8034 31.4232 12.8641 31.8941 13.3758C32.8125 14.3739 34.3738 14.3666 35.3039 13.3722C35.7486 12.8967 36.1897 12.8342 36.7648 12.9755C38.6712 13.4428 39.9518 15.0395 39.9572 16.9912C39.9599 18.0834 39.959 19.1757 39.9572 20.267C39.9563 21.0123 39.8051 21.16 39.0425 21.1609C37.694 21.1618 36.3445 21.1609 34.9951 21.1609ZM22.9833 21.745C24.8481 21.745 26.7128 21.7378 28.5767 21.7514C28.9408 21.7541 29.0866 21.6563 29.082 21.2668C29.0639 19.6448 29.0838 18.0228 29.0703 16.4007C29.0576 14.9118 27.9961 13.5687 26.567 13.1902C26.2989 13.1186 26.0852 13.1494 25.8624 13.3496C24.2005 14.843 21.9654 14.8602 20.3053 13.3731C20.0209 13.1186 19.77 13.0987 19.4467 13.1902C18.0031 13.5986 16.9453 14.9535 16.9335 16.4551C16.9208 18.0463 16.9408 19.6385 16.9217 21.2297C16.9172 21.6237 17.0295 21.7568 17.4352 21.7523C19.2846 21.7351 21.134 21.745 22.9833 21.745ZM34.5287 19.9346C35.8011 19.9346 37.0745 19.9283 38.3469 19.9391C38.663 19.9419 38.8197 19.8622 38.8106 19.5071C38.7907 18.7201 38.8206 17.9313 38.7998 17.1434C38.7626 15.7441 38.03 14.6881 36.8399 14.2471C36.5103 14.1248 36.2639 14.1538 35.9777 14.4028C34.6029 15.6028 32.5389 15.6228 31.2457 14.42C30.8608 14.0614 30.5347 14.1293 30.1398 14.2779C29.9171 14.3621 29.8328 14.4853 29.9324 14.7298C30.0692 15.0658 30.1761 15.4117 30.225 15.7758C30.3862 16.9686 30.2875 18.1659 30.2902 19.3613C30.2911 19.8323 30.4414 19.9545 30.8915 19.9446C32.1042 19.9174 33.3169 19.9355 34.5287 19.9346ZM11.4361 19.9355C12.4677 19.9355 13.4983 19.9355 14.5299 19.9355C15.7045 19.9355 15.6882 19.9355 15.7081 18.7609C15.7317 17.3752 15.5288 15.9642 16.1121 14.6311C16.1718 14.4952 16.0958 14.3974 15.9717 14.3394C15.6194 14.1746 15.3115 14.0687 14.9329 14.3811C13.3969 15.6481 11.61 15.6327 10.0858 14.3612C9.8286 14.1465 9.58951 14.104 9.29517 14.2099C8.17487 14.6111 7.47298 15.371 7.27555 16.5637C7.11796 17.5129 7.24475 18.4711 7.19132 19.4229C7.16868 19.8241 7.30815 19.95 7.70755 19.9437C8.94921 19.9219 10.1927 19.9346 11.4361 19.9355Z" fill="#E92129" stroke="#E92129" stroke-width="0.595829" stroke-miterlimit="10"/>
<path id="Vector_3" d="M27.2115 6.47848C27.2133 7.22021 27.2414 7.84149 27.0974 8.45372C26.64 10.4045 24.8495 11.7603 22.8136 11.6906C20.8719 11.6235 19.171 10.1147 18.8767 8.15848C18.7209 7.12149 18.7227 6.07274 18.8794 5.03576C19.1801 3.04783 20.9316 1.54987 22.9295 1.53719C25.0306 1.52451 26.7668 2.95274 27.1345 4.96874C27.2341 5.51395 27.1934 6.05644 27.2115 6.47848ZM25.9825 6.76466C25.9825 6.28285 25.9897 5.93417 25.9816 5.58549C25.9454 4.00421 24.6403 2.76074 23.0192 2.75802C21.3881 2.75531 20.0549 4.02051 20.0251 5.61085C20.0133 6.23214 20.0178 6.85342 20.0223 7.47561C20.0332 8.96361 21.1218 10.2578 22.5202 10.4498C24.0915 10.6653 25.4645 9.77055 25.8965 8.259C26.0504 7.72104 25.9499 7.17312 25.9825 6.76466Z" fill="#E92129" stroke="#E92129" stroke-width="0.595829" stroke-miterlimit="10"/>
<path id="Vector_4" d="M16.2048 8.36833C16.2265 9.17255 16.2265 9.96863 15.8606 10.723C15.1488 12.1929 13.562 13.0823 11.9925 12.8622C10.3089 12.6258 9.01382 11.3597 8.76929 9.68606C8.63978 8.79851 8.63706 7.90463 8.76838 7.01708C9.06091 5.04636 10.7645 3.68878 12.7578 3.81919C14.686 3.94508 16.193 5.57618 16.2039 7.55052C16.2057 7.82312 16.2048 8.09572 16.2048 8.36833ZM14.9812 8.37376C14.9812 8.04048 14.9957 7.70719 14.9785 7.37482C14.9097 6.0281 13.8328 5.0355 12.4562 5.03912C11.1131 5.04274 9.98469 6.08153 9.92944 7.39202C9.90318 8.02689 9.90589 8.66448 9.92944 9.29935C9.96838 10.3526 10.7454 11.2927 11.7779 11.578C12.8321 11.8687 13.927 11.4648 14.5483 10.5981C15.0392 9.91519 14.9993 9.14538 14.9812 8.37376Z" fill="#E92129" stroke="#E92129" stroke-width="0.595829" stroke-miterlimit="10"/>
<path id="Vector_5" d="M29.7968 8.26749C29.8285 7.83005 29.7506 7.30024 29.8711 6.77315C30.2904 4.93918 31.8445 3.74733 33.7518 3.81526C35.4762 3.87594 36.9733 5.2462 37.2323 7.02492C37.3618 7.91247 37.3618 8.80635 37.2305 9.6939C36.938 11.6691 35.2118 13.0177 33.1822 12.8728C31.3138 12.7396 29.8095 11.0968 29.7968 9.17496C29.795 8.90235 29.7968 8.62975 29.7968 8.26749ZM31.0167 8.35171C31.0167 8.6542 31.0059 8.9576 31.0186 9.26009C31.0711 10.5036 32.0039 11.5333 33.1668 11.642C34.5687 11.7724 35.6782 11.0479 35.9888 9.76545C36.1872 8.94673 36.1038 8.10447 36.0558 7.2785C35.9952 6.23428 35.1692 5.34583 34.1521 5.09586C33.1007 4.83684 32.0175 5.27247 31.4107 6.16092C30.947 6.83835 31.0113 7.5973 31.0167 8.35171Z" fill="#E92129" stroke="#E92129" stroke-width="0.595829" stroke-miterlimit="10"/>
<path id="Vector_6" d="M8.4476 42.0069C7.4088 42.0087 6.67612 41.2797 6.67884 40.2445C6.68065 39.2501 7.44141 38.4884 8.42948 38.4902C9.39854 38.492 10.1919 39.2836 10.1946 40.2508C10.1964 41.2453 9.4411 42.0042 8.4476 42.0069ZM8.45756 39.7201C8.07084 39.7292 7.89605 39.9375 7.86254 40.2563C7.83265 40.5443 8.15778 40.8622 8.44216 40.8241C8.75914 40.7816 8.97016 40.6068 8.96111 40.2545C8.95295 39.9049 8.75552 39.7419 8.45756 39.7201Z" fill="#E92129"/>
</g>
</g>
<defs>
<clipPath id="clip0_1_156">
<rect width="45.283" height="45.283" fill="white" transform="translate(0.358521)"/>
</clipPath>
</defs>
</svg>
