<svg width="46" height="46" viewBox="0 0 46 46" fill="none" xmlns="http://www.w3.org/2000/svg">
<g id="Vission" clip-path="url(#clip0_1_119)">
<g id="Group">
<path id="Vector" d="M37.1003 0.484375C37.7605 0.95713 37.8402 1.43894 37.3348 2.08105C36.4925 3.15154 35.6467 4.22113 34.7781 5.26988C34.5318 5.56694 34.5581 5.75985 34.7908 6.04151C35.6132 7.03683 36.4101 8.05207 37.2162 9.06098C37.2968 9.16151 37.3756 9.26385 37.4507 9.3689C37.679 9.68769 37.7233 10.0309 37.5413 10.3814C37.3638 10.7229 37.0613 10.8451 36.6846 10.8442C34.4041 10.8406 32.1227 10.8424 29.8423 10.8424C28.0065 10.8424 26.1698 10.8506 24.3341 10.8361C23.9772 10.8334 23.8667 10.9457 23.8676 11.3025C23.8794 14.4297 23.8758 17.557 23.8713 20.6842C23.8713 20.9251 23.9392 21.1271 24.0633 21.3291C25.7197 24.0143 27.3716 26.7023 29.0254 29.3894C29.2599 29.7698 29.2781 29.7689 29.519 29.3786C30.4889 27.8027 31.4544 26.2251 32.4279 24.6519C32.8319 24.0007 33.4676 23.8549 33.9304 24.306C34.0609 24.4327 34.1578 24.6003 34.2501 24.7606C36.0923 27.9358 37.9316 31.1129 39.771 34.29C41.4094 37.1192 43.0468 39.9494 44.6842 42.7796C44.7848 42.9535 44.8898 43.1265 44.9659 43.3112C45.2313 43.9534 44.8446 44.5529 44.1553 44.5828C44.0548 44.5873 43.9543 44.5846 43.8538 44.5846C29.9392 44.5846 16.0246 44.5828 2.11006 44.5909C1.61376 44.5909 1.19897 44.5094 0.946289 44.0385C0.946289 43.8093 0.946289 43.5793 0.946289 43.3502C4.47384 37.2587 8.00138 31.1672 11.5289 25.0758C11.6005 24.9517 11.6729 24.8276 11.7463 24.7044C12.2607 23.8423 13.0178 23.8278 13.5422 24.6737C14.3582 25.9896 15.1688 27.3091 15.9821 28.6269C16.1324 28.8705 16.2836 29.115 16.434 29.3586C16.6903 29.7734 16.7012 29.7743 16.9493 29.3713C18.3323 27.1253 19.6618 24.843 21.1199 22.6459C21.8625 21.5265 22.127 20.4017 22.1152 19.074C22.0599 13.2379 22.0953 7.4009 22.0853 1.56392C22.0844 1.08573 22.2239 0.727092 22.6378 0.484375C27.4595 0.484375 32.2803 0.484375 37.1003 0.484375ZM22.9602 42.8032C26.8319 42.8032 30.7045 42.8041 34.5762 42.7995C34.7247 42.7995 34.9339 42.8847 35.0118 42.7271C35.0833 42.5813 34.9122 42.4445 34.8325 42.315C30.9726 36.0379 27.109 29.7617 23.2455 23.4863C22.9946 23.0788 22.9747 23.0788 22.7265 23.4818C18.8557 29.7698 14.9858 36.0578 11.1169 42.3476C11.0444 42.4663 10.8886 42.5949 10.9529 42.7226C11.0353 42.8856 11.2391 42.7986 11.3867 42.7995C15.2439 42.8041 19.1021 42.8032 22.9602 42.8032ZM6.05059 42.8032C6.73889 42.8032 7.42991 42.7733 8.1155 42.814C8.55293 42.8403 8.78387 42.6673 9.00214 42.3087C11.125 38.8327 13.2606 35.3641 15.4043 31.9008C15.5718 31.6309 15.5799 31.4371 15.4106 31.1672C14.5774 29.8441 13.765 28.5091 12.9454 27.1778C12.6818 26.7494 12.6791 26.7467 12.431 27.176C10.5898 30.3521 8.75127 33.5301 6.91097 36.7072C5.81874 38.5937 4.72561 40.4792 3.6361 42.3675C3.56818 42.4853 3.40787 42.6084 3.49572 42.7452C3.57723 42.8729 3.76199 42.7995 3.89965 42.8013C4.61602 42.8068 5.33331 42.8032 6.05059 42.8032ZM39.8815 42.8032C40.6278 42.8032 41.3732 42.805 42.1194 42.8023C42.5849 42.8013 42.5849 42.7977 42.3522 42.3965C41.2527 40.4973 40.1532 38.5991 39.0529 36.6999C37.2053 33.5102 35.3596 30.3204 33.5084 27.1334C33.4215 26.984 33.3517 26.6308 33.1045 27.0347C32.2359 28.4539 31.3656 29.8712 30.488 31.285C30.3721 31.4715 30.3893 31.6137 30.5016 31.7949C32.7015 35.3586 34.8968 38.9242 37.0858 42.4943C37.2343 42.7361 37.4154 42.8122 37.6853 42.8068C38.418 42.7941 39.1498 42.8032 39.8815 42.8032ZM29.3804 2.23502C27.6886 2.23502 25.9969 2.24045 24.3042 2.23049C24.0026 2.22868 23.8658 2.30113 23.8676 2.63713C23.8794 4.64407 23.8776 6.65192 23.8695 8.65977C23.8686 8.94958 23.9528 9.06822 24.2598 9.06732C27.6578 9.06007 31.0568 9.06279 34.4548 9.06098C34.5499 9.06098 34.6803 9.10717 34.7329 9.00754C34.8017 8.87894 34.6613 8.80649 34.5952 8.72226C33.9893 7.95879 33.3753 7.20166 32.7712 6.43637C32.2839 5.81962 32.2839 5.47909 32.7703 4.86234C33.3653 4.10792 33.9703 3.36256 34.5662 2.60905C34.6405 2.51487 34.808 2.42973 34.7301 2.29298C34.6613 2.17162 34.4929 2.23773 34.3697 2.23773C32.7078 2.23411 31.0441 2.23502 29.3804 2.23502Z" fill="#E92129"/>
<path id="Vector_2" d="M30.5854 41.1382C30.1317 41.1201 29.8971 40.8638 29.7015 40.545C28.621 38.7862 27.5388 37.0292 26.4583 35.2722C25.7302 34.0885 25.0011 32.9048 24.2748 31.7193C24.1163 31.4612 23.9641 31.1922 24.0411 30.8734C24.1299 30.5094 24.3635 30.2603 24.7285 30.177C25.0917 30.0937 25.4268 30.1897 25.6432 30.5048C25.9512 30.9531 26.2328 31.4196 26.5181 31.8833C28.0967 34.4454 29.6743 37.0084 31.2484 39.5732C31.6025 40.151 31.5826 40.5414 31.2049 40.8937C31.0156 41.0694 30.7964 41.1545 30.5854 41.1382Z" fill="#E92129"/>
<path id="Vector_3" d="M22.9717 29.0873C22.4609 29.0819 22.0869 28.6942 22.0969 28.1789C22.1068 27.6699 22.4999 27.2995 23.0161 27.3149C23.5079 27.3285 23.8702 27.7062 23.8702 28.2025C23.8702 28.7142 23.4862 29.0927 22.9717 29.0873Z" fill="#E92129"/>
</g>
</g>
<defs>
<clipPath id="clip0_1_119">
<rect width="45.283" height="45.283" fill="white" transform="translate(0.358398)"/>
</clipPath>
</defs>
</svg>
